<svg width="20" height="21" viewBox="0 0 20 21" fill="none" xmlns="http://www.w3.org/2000/svg">
<path d="M4.16667 17.5833C3.39312 17.5833 2.65125 17.276 2.10427 16.7291C1.55729 16.1821 1.25 15.4402 1.25 14.6667C1.25 13.8931 1.55729 13.1513 2.10427 12.6043C2.65125 12.0573 3.39312 11.75 4.16667 11.75C4.94021 11.75 5.68208 12.0573 6.22906 12.6043C6.77604 13.1513 7.08333 13.8931 7.08333 14.6667C7.08333 15.4402 6.77604 16.1821 6.22906 16.7291C5.68208 17.276 4.94021 17.5833 4.16667 17.5833ZM4.16667 10.5C3.0616 10.5 2.00179 10.939 1.22039 11.7204C0.438987 12.5018 0 13.5616 0 14.6667C0 15.7717 0.438987 16.8315 1.22039 17.6129C2.00179 18.3943 3.0616 18.8333 4.16667 18.8333C5.27174 18.8333 6.33154 18.3943 7.11294 17.6129C7.89435 16.8315 8.33333 15.7717 8.33333 14.6667C8.33333 13.5616 7.89435 12.5018 7.11294 11.7204C6.33154 10.939 5.27174 10.5 4.16667 10.5ZM12.3333 8.83333H15.8333V7.33333H13.1667L11.55 4.60833C11.3083 4.19167 10.8333 3.91667 10.3333 3.91667C9.94167 3.91667 9.58333 4.075 9.33333 4.33333L6.25 7.40833C5.99167 7.66667 5.83333 8 5.83333 8.41667C5.83333 8.94167 6.10833 9.38333 6.54167 9.64167L9.33333 11.3333V15.5H10.8333V10.0833L8.95833 8.70833L10.8917 6.75M15.8333 17.5833C15.0598 17.5833 14.3179 17.276 13.7709 16.7291C13.224 16.1821 12.9167 15.4402 12.9167 14.6667C12.9167 13.8931 13.224 13.1513 13.7709 12.6043C14.3179 12.0573 15.0598 11.75 15.8333 11.75C16.6069 11.75 17.3487 12.0573 17.8957 12.6043C18.4427 13.1513 18.75 13.8931 18.75 14.6667C18.75 15.4402 18.4427 16.1821 17.8957 16.7291C17.3487 17.276 16.6069 17.5833 15.8333 17.5833ZM15.8333 10.5C14.7283 10.5 13.6685 10.939 12.8871 11.7204C12.1057 12.5018 11.6667 13.5616 11.6667 14.6667C11.6667 15.7717 12.1057 16.8315 12.8871 17.6129C13.6685 18.3943 14.7283 18.8333 15.8333 18.8333C16.3805 18.8333 16.9223 18.7256 17.4278 18.5162C17.9334 18.3068 18.3927 17.9999 18.7796 17.6129C19.1665 17.226 19.4734 16.7667 19.6828 16.2612C19.8922 15.7557 20 15.2138 20 14.6667C20 14.1195 19.8922 13.5777 19.6828 13.0722C19.4734 12.5666 19.1665 12.1073 18.7796 11.7204C18.3927 11.3335 17.9334 11.0266 17.4278 10.8172C16.9223 10.6078 16.3805 10.5 15.8333 10.5ZM13.3333 4.5C14.1667 4.5 14.8333 3.83333 14.8333 3C14.8333 2.16667 14.1667 1.5 13.3333 1.5C12.5 1.5 11.8333 2.16667 11.8333 3C11.8333 3.83333 12.5 4.5 13.3333 4.5Z" fill="white"/>
</svg>
