<svg width="25" height="24" viewBox="0 0 25 24" fill="none" xmlns="http://www.w3.org/2000/svg">
<path d="M20.0373 10.999H22.0373C22.0373 5.869 18.1643 2 13.0273 2V4C17.0893 4 20.0373 6.943 20.0373 10.999Z" fill="white"/>
<path d="M13.0374 8.00024C15.1404 8.00024 16.0374 8.89724 16.0374 11.0002H18.0374C18.0374 7.77524 16.2624 6.00024 13.0374 6.00024V8.00024ZM16.4594 13.4432C16.2672 13.2686 16.0147 13.1754 15.7552 13.1835C15.4957 13.1915 15.2494 13.3001 15.0684 13.4862L12.6754 15.9472C12.0994 15.8372 10.9414 15.4762 9.74939 14.2872C8.55739 13.0942 8.19639 11.9332 8.08939 11.3612L10.5484 8.96724C10.7348 8.78637 10.8435 8.54006 10.8516 8.28045C10.8596 8.02083 10.7663 7.76828 10.5914 7.57624L6.89639 3.51324C6.72143 3.3206 6.47827 3.20374 6.21854 3.1875C5.95882 3.17125 5.70299 3.2569 5.50539 3.42624L3.33539 5.28724C3.1625 5.46075 3.05931 5.69169 3.04539 5.93624C3.03039 6.18624 2.74439 12.1082 7.33639 16.7022C11.3424 20.7072 16.3604 21.0002 17.7424 21.0002C17.9444 21.0002 18.0684 20.9942 18.1014 20.9922C18.3459 20.9786 18.5767 20.8749 18.7494 20.7012L20.6094 18.5302C20.7789 18.3328 20.8647 18.077 20.8486 17.8173C20.8326 17.5576 20.7159 17.3143 20.5234 17.1392L16.4594 13.4432Z" fill="white"/>
</svg>
