<svg width="21" height="21" viewBox="0 0 21 21" fill="none" xmlns="http://www.w3.org/2000/svg">
<path d="M10.5001 19.4583C5.55841 19.4583 1.54175 15.4417 1.54175 10.5C1.54175 5.55832 5.55841 1.54166 10.5001 1.54166C15.4417 1.54166 19.4584 5.55832 19.4584 10.5C19.4584 15.4417 15.4417 19.4583 10.5001 19.4583ZM10.5001 2.79166C6.25008 2.79166 2.79175 6.24999 2.79175 10.5C2.79175 14.75 6.25008 18.2083 10.5001 18.2083C14.7501 18.2083 18.2084 14.75 18.2084 10.5C18.2084 6.24999 14.7501 2.79166 10.5001 2.79166Z" fill="white"/>
<path d="M13.5916 13.775C13.4833 13.775 13.375 13.75 13.275 13.6833L10.6916 12.1417C10.05 11.7583 9.57495 10.9167 9.57495 10.175V6.75833C9.57495 6.41666 9.85828 6.13333 10.2 6.13333C10.5416 6.13333 10.825 6.41666 10.825 6.75833V10.175C10.825 10.475 11.075 10.9167 11.3333 11.0667L13.9166 12.6083C14.2166 12.7833 14.3083 13.1667 14.1333 13.4667C14.0083 13.6667 13.8 13.775 13.5916 13.775Z" fill="white"/>
</svg>
