<svg width="24" height="25" viewBox="0 0 24 25" fill="none" xmlns="http://www.w3.org/2000/svg">
<path d="M4 10.5C4 6.729 4 4.843 5.172 3.672C6.344 2.501 8.229 2.5 12 2.5H13.5C17.271 2.5 19.157 2.5 20.328 3.672C21.499 4.844 21.5 6.729 21.5 10.5V14.5C21.5 18.271 21.5 20.157 20.328 21.328C19.156 22.499 17.271 22.5 13.5 22.5H12C8.229 22.5 6.343 22.5 5.172 21.328C4.001 20.156 4 18.271 4 14.5V10.5Z" stroke="#212121" stroke-width="2" stroke-linecap="round" stroke-linejoin="round"/>
<path d="M9.8 12.474C9.373 11.73 9.167 11.123 9.043 10.507C8.859 9.597 9.28 8.707 9.976 8.139C10.271 7.899 10.608 7.981 10.782 8.294L11.175 8.999C11.486 9.557 11.642 9.837 11.611 10.133C11.581 10.429 11.371 10.67 10.951 11.153L9.8 12.474ZM9.8 12.474C10.7001 14.0164 11.9836 15.2999 13.526 16.2M13.526 16.2C14.27 16.627 14.877 16.833 15.493 16.957C16.403 17.141 17.293 16.72 17.861 16.024C18.101 15.729 18.019 15.392 17.706 15.218L17.002 14.825C16.442 14.514 16.163 14.358 15.867 14.389C15.571 14.419 15.33 14.629 14.847 15.049L13.526 16.2ZM5 6.5H2.5M5 12.5H2.5M5 18.5H2.5" stroke="#212121" stroke-width="2" stroke-linecap="round" stroke-linejoin="round"/>
</svg>
