<svg xmlns="http://www.w3.org/2000/svg" xmlns:xlink="http://www.w3.org/1999/xlink" width="500" zoomAndPan="magnify" viewBox="0 0 375 374.999991" height="500" preserveAspectRatio="xMidYMid meet" version="1.0"><defs><clipPath id="d0ec55775b"><path d="M 0 47.160156 L 352.703125 47.160156 L 352.703125 353.910156 L 0 353.910156 Z M 0 47.160156 " clip-rule="nonzero"/></clipPath></defs><rect x="-37.5" width="450" fill="#ffffff" y="-37.499999" height="449.999989" fill-opacity="1"/><rect x="-37.5" width="450" fill="#f4f6fc" y="-37.499999" height="449.999989" fill-opacity="1"/><g clip-path="url(#d0ec55775b)"><path fill="#000000" d="M 17.980469 268.640625 C 34.824219 230.996094 62.902344 186.121094 101.003906 186.121094 C 130.019531 186.121094 142.355469 199.191406 155.417969 213.03125 C 168.6875 227.089844 182.40625 241.625 212.117188 241.625 C 232.273438 241.625 251.386719 231.515625 268.933594 211.585938 C 282.417969 196.261719 295.0625 175.03125 306.519531 148.472656 C 315.515625 127.621094 322.320312 106.945312 327.066406 90.609375 C 327.941406 87.605469 330.921875 85.726562 334.011719 86.242188 L 352.691406 89.351562 L 331.613281 47.242188 L 289.464844 78.824219 L 309.445312 82.152344 C 313.109375 82.761719 315.402344 86.4375 314.347656 89.992188 C 309.734375 105.582031 303.332031 124.734375 295.113281 143.753906 C 278.257812 182.773438 250.175781 229.289062 212.117188 229.289062 C 187.734375 229.289062 176.921875 217.835938 164.402344 204.570312 C 150.78125 190.140625 135.347656 173.785156 101.003906 173.785156 C 80.890625 173.785156 61.800781 183.539062 44.261719 202.78125 C 30.761719 217.589844 18.101562 238.113281 6.632812 263.777344 C -12.699219 307.039062 -21.929688 349.550781 -22.316406 351.339844 L -10.242188 353.925781 C -10.152344 353.5 -0.851562 310.734375 17.980469 268.640625 Z M 17.980469 268.640625 " fill-opacity="1" fill-rule="nonzero"/></g></svg>