<svg width="32" height="33" viewBox="0 0 32 33" fill="none" xmlns="http://www.w3.org/2000/svg">
<path d="M3.47752 22.9675C3.47752 22.9675 3.23752 24.5375 3.79502 25.9225C4.26002 27.0825 5.46502 28.61 7.77002 29.775C10.075 30.94 12.7225 31.35 16.63 31.43C20.5375 31.5125 24.5525 30.6 26.48 28.9075C28.41 27.2125 29.085 25.7875 29.03 24.24C28.975 22.6925 28.1525 22.105 28.1525 22.105L3.47752 22.9675Z" fill="#FCB745"/>
<path d="M4.59499 21.39L3.45499 22.53C3.45499 22.53 3.14499 24.055 4.86499 25.705C6.16749 26.9525 8.47249 29.12 16.1275 29.1775C23.2925 29.2325 25.545 27.6575 26.9275 26.545C28.3125 25.4325 28.8325 23.5 28.695 22.9575C28.56 22.415 28.135 22.1025 28.135 22.1025L4.59499 21.39Z" fill="#E78B20"/>
<path d="M5.08252 23.0175C5.08252 23.0175 4.76002 23.565 4.86502 23.9125C4.94752 24.185 5.11001 25.2975 8.33751 26.7075C10.045 27.455 12.95 28.065 16.7225 27.955C21.1975 27.825 24.7825 26.925 26.5175 25.295C28.295 23.6275 27.955 22.635 27.955 22.635L5.08252 23.0175Z" fill="#FFD290"/>
<path d="M4.16002 19.2175C4.16002 19.2175 3.09002 20.3075 2.91252 20.7925C2.74502 21.25 2.76752 21.915 3.06252 22.4525C3.46002 23.1725 3.95502 23.2475 4.56752 23.615C5.23002 24.01 6.27752 25.2425 8.85502 25.785C11.4325 26.3275 14.825 26.5725 16.6425 26.5725C18.46 26.5725 20.875 26.545 23.1275 25.785C25.38 25.025 27.9575 23.5325 28.555 22.2025C29.1525 20.8725 28.5825 20.085 28.5825 20.085L27.28 19.2175H4.16002Z" fill="#6D544D"/>
<path d="M3.53495 17.835C3.53495 17.835 2.70495 17.7975 2.50495 19.055C2.35995 19.97 3.01995 20.5475 3.01995 20.5475C3.01995 20.5475 2.66995 21.05 3.07495 21.6875C3.45495 22.285 3.86245 22.42 4.70245 22.555C5.30745 22.6525 5.62495 22.4725 6.41245 22.9075C7.39995 23.4525 7.82245 24.4275 9.17995 24.725C10.5374 25.0225 12.0574 24.7525 12.1099 24.535C12.1624 24.3175 10.2099 23.505 6.68245 21.5225C5.49245 20.855 4.40245 19.9475 4.10495 19.4875C3.80745 19.0275 3.53495 17.835 3.53495 17.835ZM20.6049 24.455C20.6049 24.8075 21.7724 24.645 22.3149 24.3475C22.8574 24.05 23.7249 23.29 24.5124 22.9625C25.2999 22.6375 25.5974 22.935 26.7374 22.3925C27.8774 21.85 28.5024 20.575 28.5024 20.575C28.5024 20.575 29.0574 19.89 29.1024 19.41C29.1724 18.6775 29.0999 18.3225 28.5849 18.16C28.0699 17.9975 26.9474 19.685 26.7849 19.875C26.6224 20.065 24.2174 21.8225 23.2674 22.5C22.3174 23.1775 20.6049 24.265 20.6049 24.455Z" fill="#9B7169"/>
<path d="M4.59499 16.9125C4.59499 16.9125 3.23749 17.075 3.04749 17.645C2.85749 18.215 3.45499 19.055 5.02749 20.115C6.31749 20.9825 10.7375 23.07 12.49 24.1575C14.4975 25.405 16.1975 27.1475 16.48 27.17C16.8325 27.1975 19.28 24.5975 22.6675 22.3125C25.8875 20.1375 28.095 19.6 28.8825 17.9975C29.305 17.1375 28.285 16.64 28.285 16.64L15.205 11.675L4.59499 16.9125Z" fill="#FFE869"/>
<path d="M16.6425 25.705C17.0475 25.66 19.165 23.615 21.6625 22.0425C24.16 20.47 27.85 18.785 28.3925 17.8375C28.935 16.89 27.6325 16.2625 27.6325 16.2625L12.435 13.7125L3.53496 17.2125C3.53496 17.2125 3.04746 17.375 3.37246 17.7825C3.69746 18.19 4.21246 18.8675 5.35246 19.5725C6.73746 20.43 10.2925 21.8525 12.5425 23.0725C14.7975 24.2925 16.155 25.7575 16.6425 25.705Z" fill="#FFBE01"/>
<path d="M4.76001 17.6175L5.23251 18.8825C5.23251 18.8825 8.63251 22.31 15.395 22.445C22.125 22.58 25.8975 19.3775 25.8975 19.3775L26.7575 17.2175L4.76001 17.6175Z" fill="#F4482B"/>
<path d="M13.625 19.7075L13.0925 20.56C13.0925 20.56 14.23 21.2425 14.5575 21.36C15.0275 21.5275 15.49 21.4675 16.1825 21.2525C16.875 21.04 19.75 19.895 19.75 19.895C19.75 19.895 22.1275 19.93 23.62 19.9575C24.9425 19.9825 26.2675 19.5075 26.96 18.7075C27.6525 17.9075 28.7275 16.1925 28.7275 16.1925C28.7275 16.1925 29.2875 16.06 29.66 15.6325C30.0325 15.205 30.06 14.8325 30.06 14.8325C30.06 14.8325 29.9525 14.1125 29.555 13.9275C29.155 13.74 11.34 12.65 11.34 12.65L4.2025 13.1825L3 15.66L6.9675 19.0425L12.56 19.3625L13.625 19.7075Z" fill="#A6B732"/>
<path d="M3.37249 13.4775C2.96999 13.295 2.54749 13.3175 2.35999 13.85C2.17249 14.3825 2.22999 14.6175 2.22999 14.6175C2.22999 14.6175 1.68249 14.7325 1.61499 15.42C1.53499 16.245 2.43999 16.5375 2.43999 16.5375C2.43999 16.5375 2.48249 16.8575 2.83999 17.1775C3.24749 17.5425 3.65499 17.505 3.65499 17.505C3.65499 17.505 4.72999 18.5625 5.44999 18.9875C6.16999 19.4125 7.20749 19.7075 8.24749 19.68C9.28749 19.6525 9.63249 19.175 10.405 19.44C11.1775 19.705 13.225 20.7825 14.05 20.8C15.355 20.8275 18.1775 18.8025 18.8175 18.83C19.4575 18.8575 22.36 19.31 23.905 19.31C25.45 19.31 26.01 18.8575 26.355 18.405C26.7 17.9525 27.2875 16.8075 27.1 16.78C26.9125 16.7525 25.6875 17.765 24.81 17.685C23.93 17.605 23.16 17.1 22.0675 17.1C20.975 17.1 15.65 17.7925 15.3025 17.9525C14.955 18.1125 13.465 19.2575 13.1725 19.205C12.88 19.1525 11.8675 18.3 11.5225 18.1125C11.1775 17.925 7.54499 17.805 7.02249 17.9C6.64749 17.9675 6.11749 18.06 6.11749 18.06C6.11749 18.06 6.16999 17.235 5.71749 16.755C5.26499 16.275 3.77249 15.45 3.77249 15.45C3.77249 15.45 3.95749 13.7425 3.37249 13.4775ZM26.9925 14.915C26.9925 14.915 28.6175 14.915 29.07 14.8875C29.5225 14.86 30.055 14.835 30.055 14.835C30.055 14.835 29.9 14.0975 29.665 13.705C29.185 12.9 28.03 12.6775 28.03 12.6775L26.9925 14.915Z" fill="#C2DD1F"/>
<path d="M3.00001 12.4925L2.82251 13.2775C2.82251 13.2775 5.28001 17.63 16.325 17.795C22.79 17.8925 26.505 15.93 28.145 14.325C29.1275 13.3625 29.16 12.4275 29.16 12.4275L3.00001 12.4925Z" fill="#DE8010"/>
<path d="M2.44005 10.3275C2.30005 12.5025 2.83005 13.2825 2.83005 13.2825C2.83005 13.2825 6.48505 16.5925 15.8201 16.745C25.3876 16.9 28.4976 13.7275 29.0426 12.8025C29.3901 12.215 29.6676 11.0625 29.4476 9.38249C29.0826 6.60749 25.8876 1.34249 15.7751 1.38249C5.66255 1.42249 2.64505 7.16999 2.44005 10.3275Z" fill="url(#paint0_radial_184_29991)"/>
<path d="M12.0475 4.09C12.125 4.515 10.2075 5.93 9.93003 4.5725C9.67003 3.295 11.975 3.6975 12.0475 4.09ZM12.7325 6.7525C12.8325 7.015 14.7975 7.3925 14.5875 6.285C14.3675 5.1325 12.5275 6.2125 12.7325 6.7525ZM14.455 3.7125C14.505 4.09 16.795 4.53 16.7475 3.465C16.69 2.15 14.3975 3.275 14.455 3.7125ZM10.6775 7.6275C10.69 7.7125 10.1275 8.155 9.55253 8.3275C9.04753 8.48 8.53003 8.415 8.47253 7.7875C8.41753 7.1825 8.84753 6.9625 9.36253 7.015C9.95503 7.0725 10.6525 7.465 10.6775 7.6275ZM15.435 9.395C15.34 8.9975 13.1875 8.445 13.3325 9.7025C13.48 10.955 15.5375 9.8175 15.435 9.395ZM17.45 6.5325C17.345 6.41 16.8525 6.4325 16.2525 6.59C15.82 6.705 15.5 7.1925 15.8 7.655C16.15 8.195 16.7375 7.9675 17.1125 7.51C17.4175 7.14 17.5675 6.67 17.45 6.5325ZM19.755 3.61C19.6875 3.5375 19.195 3.4875 18.7925 3.6825C18.3875 3.8775 18.0375 4.3425 18.4125 4.7775C18.7925 5.215 19.3575 4.9625 19.625 4.5C19.8375 4.1275 19.8575 3.72 19.755 3.61ZM21.3 7.415C21.235 7.0075 19.425 6.2825 19.4375 7.3925C19.45 8.53 21.3575 7.7825 21.3 7.415ZM23.8025 5.405C23.7425 5.0925 21.44 4.84 21.8325 6.0025C22.24 7.215 23.875 5.785 23.8025 5.405ZM20.6325 9.495C20.6475 9.145 18.895 8.3425 18.765 9.3925C18.635 10.4425 20.6125 9.95 20.6325 9.495Z" fill="#FDEAC8"/>
<defs>
<radialGradient id="paint0_radial_184_29991" cx="0" cy="0" r="1" gradientUnits="userSpaceOnUse" gradientTransform="translate(15.8662 4.38073) rotate(89.3583) scale(11.0101 19.1848)">
<stop offset="0.517" stop-color="#DF8016"/>
<stop offset="0.643" stop-color="#E58C21"/>
<stop offset="1" stop-color="#F5AC3C"/>
</radialGradient>
</defs>
</svg>
