<svg width="22" height="22" viewBox="0 0 22 22" fill="none" xmlns="http://www.w3.org/2000/svg">
<path d="M11.1464 10.6517C11.1189 10.6517 11.1005 10.6517 11.073 10.6517C11.0272 10.6425 10.963 10.6425 10.908 10.6517C8.24969 10.5692 6.24219 8.47916 6.24219 5.90333C6.24219 3.28166 8.37802 1.14583 10.9997 1.14583C13.6214 1.14583 15.7572 3.28166 15.7572 5.90333C15.748 8.47916 13.7314 10.5692 11.1739 10.6517C11.1647 10.6517 11.1555 10.6517 11.1464 10.6517ZM10.9997 2.52083C9.13885 2.52083 7.61719 4.0425 7.61719 5.90333C7.61719 7.73666 9.04719 9.21249 10.8714 9.27666C10.9172 9.2675 11.0455 9.2675 11.1647 9.27666C12.9614 9.19416 14.373 7.71833 14.3822 5.90333C14.3822 4.0425 12.8605 2.52083 10.9997 2.52083Z" fill="white"/>
<path d="M11.1555 20.6708C9.35881 20.6708 7.55298 20.2125 6.18714 19.2958C4.91298 18.4525 4.21631 17.2975 4.21631 16.0417C4.21631 14.7858 4.91298 13.6217 6.18714 12.7692C8.93714 10.945 13.3921 10.945 16.1238 12.7692C17.3888 13.6125 18.0946 14.7675 18.0946 16.0233C18.0946 17.2792 17.398 18.4433 16.1238 19.2958C14.7488 20.2125 12.9521 20.6708 11.1555 20.6708ZM6.94798 13.9242C6.06798 14.5108 5.59131 15.2625 5.59131 16.0508C5.59131 16.83 6.07714 17.5817 6.94798 18.1592C9.23048 19.69 13.0805 19.69 15.363 18.1592C16.243 17.5725 16.7196 16.8208 16.7196 16.0325C16.7196 15.2533 16.2338 14.5017 15.363 13.9242C13.0805 12.4025 9.23048 12.4025 6.94798 13.9242Z" fill="white"/>
</svg>
