<svg width="138" height="24" viewBox="0 0 138 24" fill="none" xmlns="http://www.w3.org/2000/svg">
<path d="M12.0439 0L14.7381 8.2918H23.4566L16.4032 13.4164L19.0974 21.7082L12.0439 16.5836L4.99052 21.7082L7.68469 13.4164L0.631268 8.2918H9.34978L12.0439 0Z" fill="#FF9800"/>
<path d="M40.5332 0L43.2274 8.2918H51.9459L44.8925 13.4164L47.5866 21.7082L40.5332 16.5836L33.4798 21.7082L36.1739 13.4164L29.1205 8.2918H37.839L40.5332 0Z" fill="#FF9800"/>
<path d="M69.0225 0L71.7166 8.2918H80.4351L73.3817 13.4164L76.0759 21.7082L69.0225 16.5836L61.969 21.7082L64.6632 13.4164L57.6098 8.2918H66.3283L69.0225 0Z" fill="#FF9800"/>
<path d="M97.5107 0L100.205 8.2918H108.923L101.87 13.4164L104.564 21.7082L97.5107 16.5836L90.4573 21.7082L93.1515 13.4164L86.0981 8.2918H94.8166L97.5107 0Z" fill="#FF9800"/>
<path d="M126 0L128.694 8.2918H137.413L130.359 13.4164L133.053 21.7082L126 16.5836L118.947 21.7082L121.641 13.4164L114.587 8.2918H123.306L126 0Z" fill="#D9D9D9"/>
</svg>
