<svg width="1269" height="32" viewBox="0 0 1269 32" fill="none" xmlns="http://www.w3.org/2000/svg">
<path d="M16 0L19.5922 11.0557H31.2169L21.8123 17.8885L25.4046 28.9443L16 22.1115L6.59544 28.9443L10.1877 17.8885L0.783095 11.0557H12.4078L16 0Z" fill="#D4D4D4"/>
<path d="M99 0L102.592 11.0557H114.217L104.812 17.8885L108.405 28.9443L99 22.1115L89.5954 28.9443L93.1877 17.8885L83.7831 11.0557H95.4078L99 0Z" fill="#D9D9D9"/>
<path d="M182 0L185.592 11.0557H197.217L187.812 17.8885L191.405 28.9443L182 22.1115L172.595 28.9443L176.188 17.8885L166.783 11.0557H178.408L182 0Z" fill="#D9D9D9"/>
<path d="M265 0L268.592 11.0557H280.217L270.812 17.8885L274.405 28.9443L265 22.1115L255.595 28.9443L259.188 17.8885L249.783 11.0557H261.408L265 0Z" fill="#D9D9D9"/>
<path d="M348 0L351.592 11.0557H363.217L353.812 17.8885L357.405 28.9443L348 22.1115L338.595 28.9443L342.188 17.8885L332.783 11.0557H344.408L348 0Z" fill="#D9D9D9"/>
</svg>
