<svg width="32" height="33" viewBox="0 0 32 33" fill="none" xmlns="http://www.w3.org/2000/svg">
<path d="M15.9675 11.4275C15.9675 11.4275 1.32995 12.915 1.38995 14.3525C1.43745 15.5025 1.11495 19.4375 4.40995 23.4625C6.56995 26.1 10.355 28.6425 16.5425 28.6425C22.6275 28.6425 25.97 25.8325 28.0525 22.7925C30.7275 18.8825 30.595 15.215 30.595 14.305C30.5925 12.4825 19.18 10.71 15.9675 11.4275Z" fill="#D5D5D5"/>
<path d="M16.725 8.14752C16.725 8.14752 15.7375 7.50002 14.835 7.58252C13.9325 7.66752 13.51 8.20252 13.51 8.20252L10.6825 15.2375L13.69 18.5925L15.6525 19.9525L19.45 19.8575L21.1275 8.18002L16.725 8.14752Z" fill="#307D31"/>
<path d="M16.915 9.86502C16.915 9.86502 16.2275 8.70752 16.145 7.71752C16.0625 6.72752 16.8375 6.15752 17.25 6.15752C18.26 6.15752 18.375 6.78252 18.98 6.72752C19.585 6.67252 19.78 6.13752 19.9425 5.32252C20.1075 4.49252 20.82 4.02502 21.4675 4.43752C22.09 4.83502 21.87 6.01002 21.87 6.01002C21.87 6.01002 22.365 5.40502 22.9175 5.84502C23.4075 6.23752 23.2475 7.44252 23.2475 7.44252C23.2475 7.44252 24.3225 6.20252 25.23 6.81002C26.1375 7.41752 25.45 9.50752 25.45 9.50752L25.1475 11.38L19.9725 9.39752C19.9725 9.39752 19.67 8.68252 18.5675 8.76502C17.4675 8.84752 16.915 9.86502 16.915 9.86502ZM11.3825 14.8225C11.3825 14.8225 12.3075 12.945 14.32 13.5725C16.43 14.23 16.0475 16.2625 16.0475 16.2625C16.0475 16.2625 16.5875 15.8675 17.22 15.8125C17.8525 15.7575 18.625 15.8675 18.625 15.8675L18.525 14.7775C18.525 14.7775 17.1825 14.955 16.3675 13.995C15.2725 12.7025 16.01 11.215 16.01 11.215L16.2025 10.28L14.275 9.04002L12.9525 7.33252C12.9525 7.33252 12.5125 6.37002 11.3275 6.31502C10.1425 6.26002 9.58501 7.09502 9.58501 7.09502C9.58501 7.09502 7.04751 6.36252 5.75251 7.46252C4.87751 8.20752 5.10501 9.42752 5.10501 9.42752C5.10501 9.42752 4.49001 9.79252 3.42751 8.90002C2.95501 8.50252 2.03001 8.80502 1.89251 9.55002C1.75501 10.2925 2.05001 11.22 2.05001 11.22L1.19751 11.7425L4.08751 14.715L11.3825 14.8225Z" fill="#58A12F"/>
<path d="M17.7974 14.16C17.7974 14.16 16.6249 14.2275 15.7324 12.15C15.1974 10.905 15.5724 8.48997 16.8349 8.73497C17.8249 8.92747 17.6874 10.6075 18.3774 10.745C18.7199 10.8125 19.4799 9.00997 21.1024 8.89997C22.4224 8.80997 24.1574 10.5525 24.1574 10.5525C24.1574 10.5525 24.9274 10.0025 25.0099 9.80997C25.0924 9.61747 25.2299 8.87497 26.0849 8.92997C27.0324 8.98997 26.9099 10.0325 26.9099 10.0325C26.9099 10.0325 28.0399 9.59247 28.8649 10.005C29.7524 10.45 29.6899 11.3 29.6899 11.3C29.6899 11.3 30.4874 10.4475 31.1224 10.8875C31.7574 11.3275 29.9674 14.84 28.2599 16.6025C26.5524 18.365 24.3424 18.2475 24.3424 18.2475L17.7974 14.16Z" fill="#86C82C"/>
<path d="M6.97996 8.50501L6.77246 8.10251C6.77246 8.10251 7.40496 7.28501 8.81496 7.51001C10.3625 7.75751 10.5175 8.83501 10.5175 8.83501C10.5175 8.83501 9.71996 9.13751 9.69496 9.10001C9.66996 9.06251 8.92246 8.27751 8.92246 8.27751L7.44246 8.32751L6.97996 8.50501Z" fill="#D2608C"/>
<path d="M7.12746 8.81001C7.12746 8.81001 7.84746 8.47001 8.55496 8.62251C9.26246 8.77501 9.42746 9.34251 9.42746 9.34251L10.085 9.07751C10.085 9.07751 9.66996 8.18751 8.69246 8.01501C7.61996 7.82501 6.95996 8.47251 6.95996 8.47251L7.12746 8.81001Z" fill="white"/>
<path d="M6.89502 9.84502C6.89502 9.84502 9.19502 9.19252 10.075 8.75752C11.485 8.06002 12.71 7.43252 13.0675 7.19252C13.2575 7.06502 13.39 6.92002 13.645 6.97252C13.9 7.02502 16.1925 11.585 12.455 13.245C10.9425 13.9175 9.31752 14.145 9.31752 14.145L6.98252 12.1725L6.89502 9.84502Z" fill="#FE2A19"/>
<path d="M7.69256 10.5075C7.63756 10.67 8.86756 13.0125 11.4501 12.055C13.8801 11.155 13.0826 8.28 12.9301 8.1775C12.8301 8.1125 11.6776 8.75 10.4326 9.305C9.13256 9.8825 7.73756 10.3775 7.69256 10.5075Z" fill="#CB1C35"/>
<path d="M9.53756 10.965C9.96256 11.1325 10.5251 10.9575 11.0926 10.7125C11.6151 10.4875 12.2601 10.1375 12.2776 9.76001C12.2951 9.38501 11.3776 8.96501 11.1376 8.97251C10.9001 8.98251 9.83006 9.45251 9.68756 9.68001C9.54506 9.91001 9.22756 10.8425 9.53756 10.965Z" fill="#FF5F5D"/>
<path d="M9.25004 10.955C9.01004 10.8925 8.79004 11.13 8.73004 11.4075C8.65254 11.77 9.00254 11.8475 9.16254 11.715C9.41004 11.51 9.47754 11.0125 9.25004 10.955ZM10.54 11.15C10.3025 11.1575 10.2125 11.5375 10.295 11.81C10.4 12.1675 10.7575 12.0725 10.82 11.875C10.935 11.525 10.775 11.1425 10.54 11.15ZM11.8225 10.5175C11.65 10.67 11.8175 11.01 12.0475 11.1625C12.3475 11.3625 12.555 11.0725 12.48 10.885C12.3475 10.5525 11.9925 10.3675 11.8225 10.5175ZM12.2825 9.42752C12.295 9.65002 12.6475 9.74002 12.895 9.66752C13.22 9.57252 13.1225 9.23502 12.94 9.17252C12.615 9.06002 12.27 9.20752 12.2825 9.42752Z" fill="#F7CA76"/>
<path d="M11.94 15.3025C12.1675 14.6875 13.36 13.7025 14.62 14.61C15.8475 15.495 15.285 16.95 14.76 17.4275C14.19 17.9475 13.055 18.1 12.4175 17.395C11.78 16.69 11.635 16.125 11.94 15.3025Z" fill="#E9FCAE"/>
<path d="M4.57998 16.15C4.64498 16.07 4.80748 15.865 4.70748 15.505C4.53998 14.9025 4.11498 14.16 3.30248 13.2025C1.88498 11.5325 1.18248 11.0975 0.732483 11.5725C0.254983 12.0775 0.929983 13.2575 1.82748 14.34C2.72498 15.4225 4.17248 16.655 4.57998 16.15Z" fill="#307D31"/>
<path d="M4.10255 15.125C3.96505 15.2375 3.21755 14.7175 2.44505 13.805C1.67255 12.8925 1.10505 12.125 1.35005 11.9375C1.66005 11.7 2.78255 12.8775 3.07755 13.285C3.37255 13.6925 4.41005 14.8725 4.10255 15.125Z" fill="#E9FCAE"/>
<path d="M20.335 10.3625L20.7575 9.95502C20.7575 9.95502 22.125 11.7725 23.2 10.965C24.4925 9.99502 23.215 8.42252 23.215 8.42252L23.7775 8.14252L24.5225 9.29502L24.5775 10.925L23.3 12.035C23.3 12.035 21.895 12.035 21.7825 11.8675C21.67 11.6975 20.335 10.3625 20.335 10.3625Z" fill="white"/>
<path d="M19.9 10.7425L20.4575 10.2475C20.4575 10.2475 22.035 12.485 23.61 11.3225C25.12 10.205 23.7325 8.16753 23.7325 8.16753L24.29 7.84003C24.29 7.84003 25.395 9.08753 24.9575 10.72C24.605 12.03 23.2975 12.6425 22.23 12.4175C20.555 12.0625 19.9 10.7425 19.9 10.7425Z" fill="#D2608C"/>
<path d="M22.23 13.62C22.23 13.62 22.275 12.58 23.73 11.42C25.185 10.26 26.4075 10.5775 26.815 10.925C27.225 11.275 27.7125 12.56 26.605 13.955C26.075 14.62 25.665 14.715 25.0875 14.6625C24.4125 14.6 23.24 14.015 23.24 14.015L22.23 13.62Z" fill="#2C7B2E"/>
<path d="M26.2625 11.3875C25.655 10.985 24.4025 11.6225 23.7575 12.225C23.07 12.87 22.88 13.6 22.88 13.6L24.3825 14.13C24.3825 14.13 25.2275 14.11 25.7925 13.465C26.635 12.505 26.7175 11.69 26.2625 11.3875Z" fill="#E0FEAC"/>
<path d="M18.1075 11.9325C17.8975 12.0375 17.1125 12.9575 17.345 14.7875C17.5875 16.68 18.94 17.925 21.18 18.0875C24.0475 18.2925 25.66 16.1925 25.88 15.8125C26.1 15.4325 26.54 14.5975 26.2325 14.32C25.925 14.0425 24.0075 13.925 21.7975 13.2375C19.315 12.4625 18.575 11.6975 18.1075 11.9325Z" fill="#FE2A19"/>
<path d="M19.1 12.9975C18.7875 13.1525 18.48 15.93 20.9325 16.7425C23.045 17.4425 24.615 15.1175 24.455 14.8075C24.295 14.4975 23.3425 14.6025 21.77 14.045C20.195 13.485 19.345 12.8775 19.1 12.9975Z" fill="#CB1C35"/>
<path d="M20.17 14.4725C20.2425 14.84 20.585 15.2875 21.3625 15.62C21.98 15.885 22.6425 15.7675 22.9225 15.65C23.2025 15.5325 23.095 14.4175 22.9675 14.385C22.57 14.2825 21.365 13.87 20.9975 13.7225C20.76 13.6275 20.0925 14.0775 20.17 14.4725Z" fill="#FE6261"/>
<path d="M20.03 14.5C20.0175 14.27 19.645 14.1925 19.385 14.2775C19.0425 14.3875 19.1425 14.73 19.335 14.7875C19.6775 14.8925 20.0425 14.7275 20.03 14.5ZM20.7825 15.46C20.6025 15.3175 20.2975 15.545 20.19 15.7975C20.0475 16.1275 20.37 16.28 20.54 16.1725C20.845 15.9825 20.96 15.6 20.7825 15.46Z" fill="#F7CA76"/>
<path d="M17.215 19.5625C17.215 19.5625 17.2825 19.11 16.9525 18.455C16.81 18.1725 16.2475 17.61 16.67 17.125C17.0925 16.6425 18.5225 16.945 18.985 17.045C19.4475 17.145 20.1925 17.125 20.475 16.8425C20.7575 16.56 20.9575 15.3925 21.985 15.11C23.045 14.82 23.545 15.755 23.9775 16.1375C24.32 16.44 24.8225 16.56 25.5275 16.3175C26.2325 16.075 26.03 17.0025 26.03 17.0025L25.205 18.835L17.215 19.5625ZM4.47252 16.9875C4.47252 16.9875 3.72752 15.5575 3.24502 13.3625C2.76252 11.1675 2.80002 10.4475 3.30502 10.2825C4.17002 9.99999 4.75502 11.0475 5.05752 10.9875C5.36002 10.9275 5.42002 9.65749 6.30502 9.45749C7.19002 9.25499 7.53252 10.0625 7.97502 10.7875C8.41752 11.5125 9.24252 13.445 9.24252 13.445C9.24252 13.445 10.0275 13.0825 10.7125 13.445C11.3975 13.8075 12.0625 14.895 12.3425 15.66C12.625 16.425 12.9 17.0975 12.9 17.0975C12.9 17.0975 13.8675 17.28 14.7575 17.815C15.765 18.42 16.2475 19.6075 16.2475 19.6075L11.2975 19.925C11.2975 19.925 5.29752 17.77 5.23752 17.67C5.17502 17.57 4.41002 16.905 4.47252 16.9875Z" fill="#86C82C"/>
<path d="M5.25744 17.7725C5.25744 17.7725 4.95494 17.0475 5.05494 16.1225C5.15494 15.1975 5.58744 14.6075 6.31244 14.6075C6.87744 14.6075 7.85244 14.975 8.79994 16.3025C9.74744 17.63 9.86744 18.84 9.86744 18.84L5.85994 18.3175L5.25744 17.7725Z" fill="#2D792A"/>
<path d="M5.51747 17.51C5.51747 17.51 5.12497 15.9125 5.61747 15.5375C5.95997 15.275 6.48247 15.3575 7.42997 16.4025C8.50997 17.5975 8.73747 18.6375 8.73747 18.6375L5.51747 17.51Z" fill="#E7FCAE"/>
<path d="M10.3774 19.03L10.8399 19.07C10.8399 19.07 11.1024 17.8425 12.1274 17.3375C13.1149 16.855 14.1599 17.2575 14.1599 17.2575L14.3199 16.6725L13.2324 16.23L11.7624 16.5325C11.7624 16.5325 10.4324 17.74 10.4324 17.8C10.4324 17.86 10.3774 18.97 10.3774 19.03Z" fill="white"/>
<path d="M9.57495 19.2075C9.57495 19.1475 9.69745 17.4575 11.125 16.51C12.9375 15.3075 14.4375 16.33 14.4375 16.33L14.25 16.9075C14.25 16.9075 12.69 16.225 11.4875 17.255C10.5 18.1 10.28 19.37 10.28 19.37L9.57495 19.2075Z" fill="#D2608C"/>
<path d="M16.8625 27.6675C25.555 27.64 28.505 20.6175 29.2075 18.0175C29.6675 16.315 29.8325 14.7675 29.8325 14.7675L26.7825 18.2025C26.7825 18.2025 17.2175 20.0375 16.8975 20.0375C16.5775 20.0375 11.2925 19.6125 11.2925 19.6125L5.86251 18.315L2.14001 14.71C2.14001 14.71 2.21001 16.9525 2.81251 18.655C3.27751 19.9675 5.97001 27.7025 16.8625 27.6675Z" fill="#F6F6F6"/>
<path d="M16.0099 20.6075C20.1599 20.66 26.2249 19.58 28.4974 17.3075C29.9524 15.8525 29.8449 14.54 29.8449 14.54C29.8449 14.54 27.2199 19.4975 15.9724 19.33C6.43245 19.1875 2.13245 14.6975 2.13245 14.6975C2.13245 14.6975 2.38745 16.2425 3.55745 17.2025C6.32495 19.465 10.4749 20.535 16.0099 20.6075ZM5.11495 20.205C4.62745 20.6625 5.15495 21.825 6.34495 22.8725C7.53495 23.92 8.72495 24.76 9.31995 24.165C9.93745 23.5475 8.47995 22.0725 7.65745 21.355C6.83495 20.6375 5.74995 19.61 5.11495 20.205Z" fill="white"/>
</svg>
