<svg width="22" height="22" viewBox="0 0 22 22" fill="none" xmlns="http://www.w3.org/2000/svg">
<path d="M19.4792 11H8.15379M4.15621 11H2.52087M4.15621 11C4.15621 10.47 4.36675 9.96173 4.74151 9.58697C5.11627 9.21221 5.62455 9.00167 6.15454 9.00167C6.68453 9.00167 7.19282 9.21221 7.56758 9.58697C7.94234 9.96173 8.15287 10.47 8.15287 11C8.15287 11.53 7.94234 12.0383 7.56758 12.413C7.19282 12.7878 6.68453 12.9983 6.15454 12.9983C5.62455 12.9983 5.11627 12.7878 4.74151 12.413C4.36675 12.0383 4.15621 11.53 4.15621 11ZM19.4792 17.0564H14.2102M14.2102 17.0564C14.2102 17.5865 13.9992 18.0954 13.6243 18.4702C13.2495 18.8451 12.7411 19.0557 12.211 19.0557C11.681 19.0557 11.1727 18.8442 10.7979 18.4695C10.4232 18.0947 10.2126 17.5864 10.2126 17.0564M14.2102 17.0564C14.2102 16.5263 13.9992 16.0184 13.6243 15.6435C13.2495 15.2687 12.7411 15.0581 12.211 15.0581C11.681 15.0581 11.1727 15.2686 10.7979 15.6434C10.4232 16.0181 10.2126 16.5264 10.2126 17.0564M10.2126 17.0564H2.52087M19.4792 4.94359H16.633M12.6354 4.94359H2.52087M12.6354 4.94359C12.6354 4.41359 12.8459 3.90531 13.2207 3.53055C13.5954 3.15579 14.1037 2.94525 14.6337 2.94525C14.8961 2.94525 15.156 2.99694 15.3984 3.09737C15.6409 3.19779 15.8612 3.34499 16.0467 3.53055C16.2323 3.71611 16.3795 3.93641 16.4799 4.17886C16.5804 4.4213 16.632 4.68116 16.632 4.94359C16.632 5.20601 16.5804 5.46587 16.4799 5.70831C16.3795 5.95076 16.2323 6.17106 16.0467 6.35662C15.8612 6.54218 15.6409 6.68938 15.3984 6.7898C15.156 6.89023 14.8961 6.94192 14.6337 6.94192C14.1037 6.94192 13.5954 6.73138 13.2207 6.35662C12.8459 5.98186 12.6354 5.47358 12.6354 4.94359Z" stroke="#F5F5F5" stroke-width="1.4" stroke-miterlimit="10" stroke-linecap="round"/>
</svg>
