<svg width="32" height="33" viewBox="0 0 32 33" fill="none" xmlns="http://www.w3.org/2000/svg">
<path d="M2.21161 30.2903C4.35383 32.4325 6.74761 33.5143 9.04538 31.2165C10.6765 29.5854 10.2614 26.5258 8.11827 24.3818C5.97516 22.2396 2.9165 21.8245 1.2845 23.4556C-1.01328 25.7534 0.0684959 28.1463 2.21161 30.2903ZM8.0365 24.4645C9.64361 26.0716 9.95472 28.3667 8.73161 29.5907C7.00894 31.3134 5.21339 30.5018 3.60539 28.8947C1.99739 27.2876 1.18672 25.4938 2.91027 23.7694C4.13338 22.5463 6.4285 22.8574 8.0365 24.4645ZM29.7894 2.71072C27.6472 0.567606 25.2543 -0.513283 22.9556 1.78449C21.3245 3.41561 21.7396 6.47516 23.8827 8.61827C26.0258 10.7614 29.0836 11.1765 30.7165 9.54449C33.0143 7.24672 31.9325 4.85294 29.7894 2.71072ZM23.9645 8.53561C22.3574 6.92849 22.0463 4.63427 23.2694 3.41027C24.9921 1.68761 26.7876 2.49827 28.3956 4.10538C30.0036 5.7125 30.8143 7.50716 29.0907 9.23072C27.8676 10.4538 25.5725 10.1427 23.9645 8.53561Z" fill="#292F33"/>
<path d="M16 31.6111C24.3457 31.6111 31.1111 24.8457 31.1111 16.5C31.1111 8.15439 24.3457 1.38892 16 1.38892C7.65439 1.38892 0.888916 8.15439 0.888916 16.5C0.888916 24.8457 7.65439 31.6111 16 31.6111Z" fill="#292F33"/>
<path d="M28.0889 16.5C28.0889 23.1765 22.6765 28.5889 16 28.5889C9.32358 28.5889 3.91113 23.1765 3.91113 16.5C3.91113 9.82358 9.32358 4.41113 16 4.41113C22.6765 4.41113 28.0889 9.82358 28.0889 16.5Z" fill="#FFAC33"/>
<path d="M17.2844 9.97998L15.0275 7.72309C15.1965 7.5266 15.2823 7.27201 15.2667 7.01332C15.2511 6.75463 15.1353 6.51221 14.9439 6.33747C14.7525 6.16273 14.5006 6.06944 14.2416 6.07737C13.9825 6.08531 13.7368 6.19385 13.5564 6.37998C13.3164 6.61998 13.2258 6.95153 13.28 7.26087C13.0706 7.22363 12.8548 7.25418 12.664 7.34807C12.4732 7.44196 12.3173 7.59428 12.219 7.78288C12.1207 7.97149 12.0852 8.18652 12.1176 8.39671C12.15 8.6069 12.2486 8.80126 12.3991 8.95153C12.768 9.32042 13.3502 9.33642 13.7422 9.00842L15.9991 11.2644L17.2844 9.97998Z" fill="#FFE8B6"/>
<path d="M24.5947 18.5764C25.2373 17.9338 26.8622 15.1756 24.6133 12.9267C23.0462 11.3596 21.7831 11.4493 19.4338 10.8671C18.4702 10.5453 17.2133 9.38711 16.8925 9.06622C16.5707 9.38711 16.6836 10.5622 16.6836 10.5622C16.6836 10.5622 15.2836 10.676 14.9618 10.9969C15.2827 11.3178 16.776 12.7302 17.0373 13.3924C17.7396 15.6218 17.6596 16.756 19.2276 18.3222C21.7973 20.892 23.9529 19.2191 24.5947 18.5764Z" fill="#C1694F"/>
<path d="M8.29595 15.1667C8.29595 16.8849 11.0506 18.2778 9.33328 18.2778C8.92472 18.2778 8.52017 18.1973 8.14271 18.0409C7.76525 17.8846 7.42228 17.6554 7.13339 17.3665C6.8445 17.0776 6.61534 16.7347 6.45899 16.3572C6.30264 15.9798 6.22217 15.5752 6.22217 15.1667C6.22217 14.7581 6.30264 14.3535 6.45899 13.9761C6.61534 13.5986 6.8445 13.2557 7.13339 12.9668C7.42228 12.6779 7.76525 12.4487 8.14271 12.2924C8.52017 12.136 8.92472 12.0555 9.33328 12.0555C11.0515 12.0555 8.29595 13.4484 8.29595 15.1667ZM16.0159 23.6022C17.4373 24.2875 19.6924 22.5649 19.0062 23.9871C18.6764 24.6701 18.0887 25.194 17.3726 25.4437C16.6565 25.6935 15.8705 25.6485 15.1875 25.3187C14.5045 24.9888 13.9806 24.4012 13.7309 23.6851C13.4811 22.969 13.5261 22.1829 13.8559 21.5C14.5422 20.0778 14.5946 22.916 16.0159 23.6022Z" fill="#77B255"/>
<path d="M13.3333 17.3889C14.3152 17.3889 15.1111 16.5929 15.1111 15.6111C15.1111 14.6293 14.3152 13.8333 13.3333 13.8333C12.3515 13.8333 11.5555 14.6293 11.5555 15.6111C11.5555 16.5929 12.3515 17.3889 13.3333 17.3889Z" fill="#F4900C"/>
<path d="M21.3333 22.7222C21.8243 22.7222 22.2222 22.3243 22.2222 21.8333C22.2222 21.3424 21.8243 20.9445 21.3333 20.9445C20.8424 20.9445 20.4445 21.3424 20.4445 21.8333C20.4445 22.3243 20.8424 22.7222 21.3333 22.7222Z" fill="#F4900C"/>
<path d="M9.7778 21.8333C10.2687 21.8333 10.6667 21.4354 10.6667 20.9444C10.6667 20.4535 10.2687 20.0555 9.7778 20.0555C9.28689 20.0555 8.88892 20.4535 8.88892 20.9444C8.88892 21.4354 9.28689 21.8333 9.7778 21.8333Z" fill="#F4900C"/>
</svg>
