<svg width="20" height="21" viewBox="0 0 20 21" fill="none" xmlns="http://www.w3.org/2000/svg">
<path d="M2.5 9.02834L3.1225 8.975C3.10815 8.81493 3.0327 8.66654 2.9118 8.56064C2.79091 8.45475 2.63387 8.3995 2.4733 8.40636C2.31273 8.41323 2.16098 8.48168 2.04957 8.59751C1.93815 8.71333 1.87563 8.86762 1.875 9.02834H2.5ZM16.8633 10.5475L16.275 13.9475L17.5075 14.1608L18.095 10.7608L16.8633 10.5475ZM11.0375 18.2083H7.16333V19.4583H11.0375V18.2083ZM6.40417 17.5108L5.7275 9.68334L4.48167 9.79084L5.15917 17.6183L6.40417 17.5108ZM16.275 13.9475C15.8525 16.3892 13.6508 18.2083 11.0375 18.2083V19.4583C14.2258 19.4583 16.9758 17.2342 17.5075 14.1608L16.275 13.9475ZM11.0458 4.75L10.4933 8.12084L11.7267 8.3225L12.2792 4.9525L11.0458 4.75ZM5.99 9.03833L7.18917 8.005L6.3725 7.05833L5.175 8.09167L5.99 9.03833ZM9.37 4.64334L9.76667 3.115L8.55667 2.80167L8.16 4.32917L9.37 4.64334ZM10.365 2.815L10.4858 2.85417L10.8683 1.66417L10.7475 1.625L10.365 2.815ZM8.76917 6.18C9.02932 5.69326 9.231 5.17745 9.37 4.64334L8.16 4.32917C8.04517 4.76774 7.87961 5.19144 7.66667 5.59167L8.76917 6.18ZM10.4858 2.85417C10.6046 2.89055 10.7122 2.95616 10.799 3.04497C10.8858 3.13379 10.9489 3.24297 10.9825 3.3625L12.1925 3.04917C12.1067 2.72525 11.9403 2.42834 11.7088 2.18615C11.4772 1.94395 11.1881 1.76437 10.8683 1.66417L10.4858 2.85417ZM9.76667 3.115C9.78353 3.0551 9.8131 2.99953 9.85336 2.95207C9.89363 2.90462 9.94364 2.8664 10 2.84L9.4575 1.71417C9.01417 1.9275 8.68083 2.3225 8.55667 2.80167L9.76667 3.115ZM10 2.84C10.1141 2.78586 10.2445 2.77692 10.365 2.815L10.7475 1.625C10.3219 1.48894 9.86035 1.52085 9.4575 1.71417L10 2.84ZM11.795 9.65333H16.1117V8.40334H11.795V9.65333ZM3.9325 18.3383L3.1225 8.975L1.8775 9.0825L2.68583 18.4458L3.9325 18.3383ZM3.125 18.4275V9.02834H1.875V18.4275H3.125ZM2.68583 18.4458C2.68329 18.4156 2.68791 18.3851 2.69778 18.3563C2.70765 18.3276 2.72339 18.3012 2.744 18.2789C2.76461 18.2565 2.78964 18.2387 2.8175 18.2266C2.84536 18.2144 2.87544 18.2082 2.90583 18.2083V19.4583C3.51083 19.4583 3.98417 18.94 3.9325 18.3383L2.68583 18.4458ZM12.2792 4.9525C12.3839 4.31899 12.3544 3.67054 12.1925 3.04917L10.9825 3.36334C11.1007 3.81599 11.1223 4.28846 11.0458 4.75L12.2792 4.9525ZM7.16333 18.2083C6.97251 18.208 6.78873 18.1362 6.64821 18.0071C6.50769 17.878 6.42062 17.7009 6.40417 17.5108L5.15917 17.6183C5.20253 18.1201 5.4324 18.5875 5.80342 18.9281C6.17444 19.2687 6.65966 19.4579 7.16333 19.4583V18.2083ZM7.18917 8.005C7.75583 7.51667 8.36583 6.93583 8.77 6.18L7.66667 5.59167C7.37833 6.1325 6.91917 6.58834 6.3725 7.05833L7.18917 8.005ZM18.095 10.7608C18.1452 10.4717 18.1315 10.175 18.055 9.89166C17.9784 9.60832 17.8409 9.34514 17.6519 9.12055C17.463 8.89596 17.2272 8.71539 16.9612 8.5915C16.6951 8.46761 16.4052 8.40339 16.1117 8.40334V9.65333C16.5842 9.65333 16.945 10.08 16.8633 10.5475L18.095 10.7608ZM2.90583 18.2083C3.0275 18.2083 3.125 18.3067 3.125 18.4275H1.875C1.875 18.9958 2.33583 19.4583 2.90583 19.4583V18.2083ZM10.4933 8.12084C10.4623 8.30965 10.4726 8.50297 10.5238 8.68737C10.5749 8.87177 10.6655 9.04284 10.7893 9.18872C10.9132 9.3346 11.0673 9.45179 11.2409 9.53217C11.4146 9.61254 11.6036 9.65334 11.795 9.65333V8.40334C11.7848 8.40338 11.7748 8.40202 11.7656 8.39773C11.7563 8.39345 11.7482 8.38719 11.7416 8.37939C11.7351 8.37159 11.7304 8.36245 11.7278 8.35262C11.7252 8.34278 11.7248 8.3325 11.7267 8.3225L10.4933 8.12084ZM5.7275 9.68334C5.71734 9.56267 5.73507 9.44131 5.78084 9.3292C5.82661 9.21708 5.89829 9.11741 5.99 9.03833L5.17333 8.09084C4.93179 8.29928 4.74314 8.56206 4.6229 8.85759C4.50266 9.15312 4.45426 9.47296 4.48167 9.79084L5.7275 9.68334Z" fill="white"/>
</svg>
