<svg width="32" height="33" viewBox="0 0 32 33" fill="none" xmlns="http://www.w3.org/2000/svg">
<path d="M17.0025 9.84253L3.31249 12.6475C3.31249 12.6475 1.21249 14.54 1.09249 17.685C1.03499 19.2125 1.28999 22.25 4.06499 24.8425C6.22249 26.8575 9.83249 28.4825 15.845 28.6125C21.425 28.7325 25.1425 26.9475 27.38 25.055C30.3675 22.53 30.835 19.4975 30.7725 17.4925C30.6725 14.3225 28.16 12.5425 27.9375 12.265C27.715 11.9875 17.0025 9.84253 17.0025 9.84253Z" fill="#D4D4D3"/>
<path d="M15.7725 27.31C25.7325 27.31 30.375 21.8425 30.265 16.7875C30.1525 11.6575 23.085 8.00752 15.96 8.13752C3.52748 8.36252 1.80498 14.1675 1.72998 17.3125C1.64248 21.02 5.02498 27.31 15.7725 27.31Z" fill="#F7F6F5"/>
<path d="M3.00247 16.2625C2.29247 19.2225 4.49997 25.925 15.9225 25.925C26.52 25.925 29.2525 19.8225 29.2525 16.8625C29.2525 13.83 26.4075 8.51248 15.51 9.10998C5.09747 9.68248 3.38497 14.67 3.00247 16.2625Z" fill="#DF7F14"/>
<path d="M23.1875 12.3575C23.3 12.58 24.115 12.7925 24.73 12.9425C25.345 13.0925 26.1825 13.2575 26.3625 12.9125C26.5425 12.5675 25.9575 11.685 25.255 11.31C24.55 10.935 23.885 11.3325 23.7275 11.46C23.4875 11.655 23.0225 12.03 23.1875 12.3575Z" fill="#FF5119"/>
<path d="M4.01248 16.315C3.63248 16.315 3.19248 17.215 3.56998 18.0975C3.94748 18.98 4.45248 19.295 4.62748 19.7525C4.79998 20.21 4.98998 21.3125 5.77748 22.0875C6.56498 22.86 7.70248 22.97 8.17498 23.1275C8.64748 23.285 9.90998 24.3125 11.945 24.625C14.2 24.9725 17.3225 24.3725 17.275 23.9C17.2275 23.43 13.915 23 13.3 22.86C12.685 22.72 10.445 22.355 8.82248 21.505C7.47998 20.8 6.39498 20.0225 5.24248 18.3025C4.41748 17.07 4.23248 16.315 4.01248 16.315Z" fill="#F5B03E"/>
<path d="M11.07 6.11748L9.69503 7.29248L7.60253 8.08498L6.99503 9.88248C6.99503 9.88248 5.99503 10.575 5.95253 10.8375C5.91253 11.1 5.31753 13.28 5.31753 13.28C5.31753 13.28 5.16253 14.1275 5.17503 14.51C5.18753 14.8925 6.59253 17.7775 11.2625 18.5975C15.9325 19.4175 18.9275 18.405 20.97 17.255C22.9075 16.1625 23.26 14.9925 23.26 14.9925L23.16 12.9375C23.16 12.9375 22.53 10.5275 22.2875 9.98748C22.045 9.44748 20.22 7.45498 20.105 7.42248C19.99 7.38998 17.64 5.93248 17.64 5.93248L14.2 5.22498L11.07 6.11748ZM3.96253 17.405C3.72253 17.52 3.86753 18.0325 4.18253 18.49C4.49753 18.9475 4.76753 19.1475 4.99753 19.8475C5.22753 20.5475 5.70753 21.7575 6.58503 22.26C7.46253 22.7625 7.98503 22.3425 8.00503 22.0725C8.03503 21.6675 7.52503 21.635 6.61503 20.725C5.70003 19.81 5.03753 18.6775 4.69253 18.135C4.48503 17.805 4.20253 17.29 3.96253 17.405ZM9.76753 22.3325C9.45503 22.145 8.98503 22.645 9.38003 23.365C9.77753 24.085 10.455 23.9175 10.4975 23.6675C10.565 23.26 10.175 23.1775 10.0475 22.925C9.92503 22.6775 10.105 22.535 9.76753 22.3325Z" fill="#FEFEFE"/>
<path d="M7.3625 10.1425C7.3625 10.1425 6.605 10.3975 6.3375 11.1575C6.0675 11.9175 6.065 12.925 6.065 12.925C6.065 12.925 5.6 13.2675 5.4025 13.785C5.195 14.33 5.2725 14.75 5.1875 14.7325C4.9975 14.6925 4.865 13.855 4.93 13.4375C5.015 12.9025 5.245 12.6925 5.245 12.6925C5.245 12.6925 5.085 11.52 5.5175 10.6625C5.9475 9.80503 6.665 9.37503 6.665 9.37503C6.665 9.37503 6.9375 8.20753 7.645 7.62503C8.3525 7.04253 9.155 6.94503 9.155 6.94503C9.155 6.94503 9.4425 6.08003 10.34 5.58253C11.24 5.08503 12.2225 5.32503 12.2225 5.32503C12.2225 5.32503 13.1175 4.59253 14.35 4.59253C15.58 4.59253 16.1675 5.23503 16.1675 5.23503C16.1675 5.23503 17.2225 5.07253 18.0025 5.47253C18.7825 5.87253 19.225 6.56003 19.225 6.56003C19.225 6.56003 20.0625 6.71003 20.685 7.31753C21.34 7.95503 21.5925 8.74503 21.5925 8.74503C21.5925 8.74503 22.7175 9.36503 23.0975 10.295C23.56 11.43 23.26 12.55 23.26 12.55C23.26 12.55 23.7325 13.1325 23.655 13.98C23.58 14.8275 23.16 15.5925 22.985 15.535C22.9475 15.5225 23.1375 14.39 22.98 13.82C22.8525 13.3575 22.3625 12.655 22.3625 12.655C22.3625 12.655 22.4325 11.35 22.02 10.61C21.6075 9.87253 20.845 9.63003 20.845 9.63003C20.845 9.63003 20.5475 8.66003 19.98 8.15253C19.4125 7.64253 18.76 7.60253 18.76 7.60253C18.76 7.60253 18.1825 6.72753 17.5125 6.47503C16.8425 6.22253 16.145 6.33753 16.145 6.33753C16.145 6.33753 15.23 5.75503 14.325 5.76003C13.3275 5.76503 12.595 6.41753 12.595 6.41753C12.595 6.41753 11.7425 6.13253 10.9325 6.68503C10.1225 7.24003 9.8975 7.88503 9.8975 7.88503C9.8975 7.88503 8.9525 7.96253 8.34 8.49753C7.7275 9.03253 7.3625 10.1425 7.3625 10.1425Z" fill="#B0B0B0"/>
<path d="M18.295 9.04997C17.855 9.05747 17.8275 9.66497 17.6175 10.0325C17.43 10.36 16.725 10.5225 17.005 10.99C17.255 11.4075 18.18 11.185 18.5325 10.4475C18.78 9.93247 18.855 9.04247 18.295 9.04997ZM20.12 11.26C19.695 11.305 19.8625 11.87 19.7175 12.305C19.5725 12.74 19.03 13.1375 19.3325 13.435C19.635 13.7325 20.34 13.2475 20.5525 12.4575C20.765 11.6675 20.4675 11.2225 20.12 11.26ZM17.8125 12.8425C17.33 12.8325 17.4225 13.34 17.13 13.77C16.8375 14.1975 16.4425 14.35 16.63 14.6525C16.8175 14.955 17.5175 15.0075 17.9425 14.215C18.3475 13.455 18.18 12.85 17.8125 12.8425ZM18.23 15.7925C17.895 16.335 17.325 16.2775 17.505 16.7375C17.69 17.21 18.5325 17.0125 18.94 16.39C19.2825 15.8625 19.55 14.9775 18.96 14.95C18.4675 14.93 18.5025 15.3525 18.23 15.7925ZM15.03 15.4625C14.68 15.4975 14.6775 15.9325 14.4275 16.255C14.1375 16.6325 13.5875 16.7025 13.78 17.1525C13.9725 17.6025 14.825 17.545 15.2825 16.9025C15.6675 16.365 15.695 15.3975 15.03 15.4625Z" fill="#D4D4D3"/>
<path d="M5.48751 16.2075C5.25501 16.2775 4.98 16.985 5.0375 17.24C5.1125 17.57 5.845 18.2425 6.265 18.2275C6.685 18.2125 7.5675 17.6575 7.6575 17.435C7.7475 17.21 7.67251 16.73 7.56751 16.5975C7.46251 16.4625 7.1025 16.0875 6.8925 16.0875C6.6825 16.0875 5.78751 16.1175 5.48751 16.2075Z" fill="#FF8E00"/>
<path d="M6.47502 18.3475C6.24002 18.7 6.53502 19.155 6.77502 19.44C7.01502 19.725 7.58252 20.4675 8.67752 20.3525C9.98002 20.2175 10.43 18.885 10.43 18.315C10.43 17.745 10.25 17.3875 9.81502 17.4775C9.24752 17.595 9.24502 17.9875 8.61752 18.1375C7.98752 18.2875 6.80502 17.855 6.47502 18.3475Z" fill="#FCC219"/>
<path d="M10.265 19.89C10.225 20.2475 10.22 21.0275 10.55 21.1475C10.88 21.2675 12.2575 21.1625 12.4975 21.0875C12.7375 21.0125 12.8275 20.4875 12.6775 20.28C12.5275 20.07 11.495 19.2475 11.075 19.2625C10.655 19.2775 10.28 19.755 10.265 19.89Z" fill="#FF8E00"/>
<path d="M13.185 21.5675C13.455 21.7025 13.695 22.72 13.62 22.96C13.545 23.2 13.275 23.665 13.14 23.7075C13.005 23.7525 11.8075 23.7675 11.3125 23.6925C10.8825 23.6275 10.4 23.1225 10.445 22.465C10.49 21.805 10.97 21.5675 11.6725 21.5075C12.375 21.4475 13.185 21.5675 13.185 21.5675ZM14.8025 19.1575C14.3725 19.225 13.5 19.92 13.47 20.505C13.44 21.09 13.89 21.5225 14.2475 21.5225C14.6075 21.5225 16.015 20.07 15.925 19.8C15.835 19.53 15.37 19.0675 14.8025 19.1575Z" fill="#FF5319"/>
<path d="M15.835 20.58C16.0575 20.8525 16.9725 21.4025 17.4825 21.315C17.9925 21.2275 19.235 20.715 19.115 19.9825C18.995 19.2475 17.9325 18.35 17.5125 18.2C17.0925 18.05 16.405 18.155 16.105 18.425C15.805 18.6925 15.565 20.25 15.835 20.58Z" fill="#F8C977"/>
<path d="M20.5075 18.8875C20.145 18.8975 19.9375 19.3375 19.8775 19.4875C19.8175 19.6375 19.6825 20.1475 19.5175 20.475C19.3525 20.805 18.59 21.6425 18.8725 22.0925C19.1575 22.5425 19.755 22.4525 20.52 22.3325C21.2825 22.2125 21.8675 21.8825 21.9575 21.195C22.0475 20.505 22.1075 19.9525 21.9275 19.7425C21.75 19.53 21.075 18.8725 20.5075 18.8875Z" fill="#FCC219"/>
<path d="M18.785 23.38C19.1 23.2 20.3125 22.2575 20.7625 22.2725C21.2125 22.2875 21.63 22.6175 21.75 22.8875C21.87 23.1575 21.915 23.92 21.66 24.13C21.405 24.34 20.5675 24.46 20.2075 24.49C19.8475 24.52 18.5725 24.6675 18.485 24.07C18.41 23.56 18.785 23.38 18.785 23.38Z" fill="#FF8E00"/>
<path d="M23.1425 21.2225C23.1275 21.9275 24.31 22.39 24.67 22.405C25.03 22.42 25.8225 22.225 26.2425 21.67C26.5175 21.305 26.7675 20.7275 26.6175 20.3675C26.4675 20.0075 26.2725 19.6925 25.75 19.6475C25.225 19.6025 24.0875 19.5575 23.7875 19.7675C23.4875 19.98 23.1475 20.97 23.1425 21.2225Z" fill="#FF5119"/>
<path d="M22.7975 17.51C22.66 17.7475 22.9075 18.5325 23.2325 18.8725C23.5025 19.1575 23.9075 19.4725 24.745 19.3825C25.5825 19.2925 26.3775 18.7375 26.5575 18.47C26.7375 18.2 26.9925 17.6475 26.8425 17.3775C26.6925 17.1075 25.345 17.2725 24.73 17.2725C24.115 17.2725 22.9625 17.225 22.7975 17.51Z" fill="#F8C977"/>
<path d="M25.8675 13.72C25.84 13.99 26.3475 14.44 26.5575 14.5875C26.7675 14.7375 27.38 14.9025 27.59 14.7675C27.8 14.6325 27.8325 13.8 27.74 13.57C27.62 13.27 27.08 12.955 26.7375 13.03C26.3925 13.1075 25.8975 13.4375 25.8675 13.72Z" fill="#F9CA76"/>
<path d="M25.4625 13.915C25.0575 14.17 24.475 15.0525 24.325 15.3225C24.175 15.5925 23.86 16.22 24.4 16.43C24.94 16.64 25.9725 16.46 26.3475 16.28C26.7225 16.1 27.44 15.725 27.455 15.2475C27.47 14.77 27.125 14.425 26.7075 14.155C26.29 13.885 25.89 13.6475 25.4625 13.915Z" fill="#FF8E00"/>
<path d="M26.975 16.985C27.21 17.2575 27.53 17.225 28.0075 17.135C28.4875 17.045 29.115 16.835 29.055 16.4C28.995 15.965 28.5 15.6525 28.2625 15.5475C28.0225 15.4425 27.2 15.4875 26.96 15.7875C26.7225 16.0875 26.7825 16.76 26.975 16.985Z" fill="#FCC219"/>
</svg>
