<svg width="24" height="24" viewBox="0 0 24 24" fill="none" xmlns="http://www.w3.org/2000/svg">
<mask id="mask0_1114_5892" style="mask-type:alpha" maskUnits="userSpaceOnUse" x="0" y="0" width="24" height="24">
<rect width="24" height="24" fill="#D9D9D9"/>
</mask>
<g mask="url(#mask0_1114_5892)">
<path d="M12 9V6H9V4H12V1H14V4H17V6H14V9H12ZM8 22C7.45 22 6.97917 21.8042 6.5875 21.4125C6.19583 21.0208 6 20.55 6 20C6 19.45 6.19583 18.9792 6.5875 18.5875C6.97917 18.1958 7.45 18 8 18C8.55 18 9.02083 18.1958 9.4125 18.5875C9.80417 18.9792 10 19.45 10 20C10 20.55 9.80417 21.0208 9.4125 21.4125C9.02083 21.8042 8.55 22 8 22ZM18 22C17.45 22 16.9792 21.8042 16.5875 21.4125C16.1958 21.0208 16 20.55 16 20C16 19.45 16.1958 18.9792 16.5875 18.5875C16.9792 18.1958 17.45 18 18 18C18.55 18 19.0208 18.1958 19.4125 18.5875C19.8042 18.9792 20 19.45 20 20C20 20.55 19.8042 21.0208 19.4125 21.4125C19.0208 21.8042 18.55 22 18 22ZM2 4V2H5.275L9.525 11H16.525L20.425 4H22.7L18.3 11.95C18.1167 12.2833 17.8708 12.5417 17.5625 12.725C17.2542 12.9083 16.9167 13 16.55 13H9.1L8 15H20V17H8C7.25 17 6.67917 16.675 6.2875 16.025C5.89583 15.375 5.88333 14.7167 6.25 14.05L7.6 11.6L4 4H2Z" fill="#333333"/>
</g>
</svg>
