<svg width="32" height="33" viewBox="0 0 32 33" fill="none" xmlns="http://www.w3.org/2000/svg">
<path d="M5.95503 19.7825L4.03003 16.765L4.55753 14.69L9.01003 11.7475L15.16 10.9925L22.14 11.8975L25.5 13.2175C25.5 13.2175 28.0275 15.405 28.065 15.8575C28.1025 16.31 27.385 18.6875 27.3475 18.8C27.31 18.9125 26.82 21.365 25.3475 21.8925C23.875 22.42 14.4075 23.78 14.255 23.7025C14.1025 23.625 5.95503 19.7825 5.95503 19.7825Z" fill="#2F2F2F"/>
<path d="M4.9375 18.84C4.9375 18.84 4.995 18.2 5.2125 17.5625C5.5025 16.7075 8.1825 12.9925 15.69 12.9925C23.1975 12.9925 27.3475 16.69 26.9325 18.5375C26.5175 20.385 21.35 25.0275 21.35 25.0275C21.35 25.0275 12.295 23.6325 12.145 23.595C11.9925 23.555 4.9375 18.84 4.9375 18.84Z" fill="#F7B03A"/>
<path d="M8.43001 16.64C8.21001 16.6875 8.01751 16.83 8.03751 17.085C8.05501 17.34 8.29001 17.46 8.50001 17.425C8.82751 17.37 8.94501 17.1375 8.90251 16.91C8.86001 16.7025 8.63001 16.595 8.43001 16.64ZM8.22001 17.8275C8.44001 18.175 8.10751 18.6575 7.44251 18.8675C6.77751 19.0775 6.31501 18.9725 6.23751 18.5175C6.16001 18.0625 6.75251 17.775 7.05751 17.67C7.36251 17.565 7.99251 17.47 8.22001 17.8275ZM11.7825 15.3125C11.7975 15.65 12.28 15.8375 12.9625 15.75C13.645 15.6625 14.01 15.2875 13.975 14.9475C13.94 14.6075 13.46 14.475 12.91 14.51C12.36 14.545 11.765 14.885 11.7825 15.3125ZM14.125 14.43C14.125 14.7325 14.4825 14.8325 14.945 14.805C15.495 14.775 15.645 14.56 15.67 14.36C15.695 14.16 15.365 13.845 14.9 13.88C14.44 13.915 14.125 14.0975 14.125 14.43ZM18.71 17.26C18.675 17.6425 18.9375 18.0625 19.9675 17.9775C20.9975 17.8925 21.2 17.375 21.2 17.1925C21.2 17.01 21.03 16.455 20.0475 16.44C19.455 16.43 18.7625 16.6825 18.71 17.26ZM23.5075 17.0425C23.4875 17.2375 23.55 17.7425 24.4775 17.715C25.4025 17.69 25.29 17.375 25.29 17.235C25.29 17.095 24.975 16.58 24.32 16.51C23.7975 16.4525 23.5425 16.7175 23.5075 17.0425ZM24.695 18.395C24.6775 18.63 24.9475 18.815 25.525 18.78C26.015 18.75 26.2275 18.4925 26.215 18.3C26.1975 18.02 25.9275 17.88 25.5075 17.8975C25.14 17.9125 24.7225 18.065 24.695 18.395ZM14.09 20.7375C14.1 20.9375 14.5275 21.175 15.2175 21.175C15.9075 21.175 16.0375 20.8875 16.0375 20.6775C16.0375 20.4675 15.82 20.2325 15.1825 20.205C14.6125 20.18 14.0725 20.3975 14.09 20.7375Z" fill="#FFE36A"/>
<path d="M6.92749 20.0475C6.95249 19.9875 6.98249 19.725 7.10999 19.505C7.22249 19.3125 7.42249 19.155 7.65249 19.155C8.05499 19.155 8.96249 19.3125 9.17249 19.6C9.32499 19.81 9.31249 20.5875 8.69999 20.7875C8.08749 20.99 6.92749 20.0475 6.92749 20.0475ZM8.79499 16.0275C8.80749 16.1875 9.06499 16.5075 9.40749 16.4825C9.74749 16.4575 10.735 16.0025 10.8325 15.8C10.9275 15.6 10.5275 15.145 10.265 15.145C10.0025 15.145 8.76999 15.6975 8.79499 16.0275ZM18.86 18.72C18.7575 18.9275 18.65 19.54 19.095 19.7075C19.54 19.8725 21.2625 19.9525 21.2625 19.455C21.2625 18.9575 20.7725 18.6 20.59 18.5725C20.405 18.545 19.0175 18.405 18.86 18.72ZM20.8775 17.9075C20.595 18.345 21.11 18.865 21.49 19.0425C22.31 19.4275 22.7225 19.3625 23.01 19.1475C23.5 18.78 23.3325 18.4125 22.285 17.925C21.5375 17.575 21.07 17.61 20.8775 17.9075Z" fill="#D64C12"/>
<path d="M16.2675 15.3C16.26 15.7625 17.295 16.23 18.04 16.2525C18.785 16.275 18.98 15.925 19.035 15.76C19.09 15.595 18.8275 15.0275 18.5325 14.785C18.2375 14.5425 17.4825 14.2925 17.1425 14.3375C16.8025 14.38 16.2775 14.71 16.2675 15.3Z" fill="#7F594B"/>
<path d="M10.1825 17.73C10.2325 18.0425 10.71 18.255 11.55 18.31C12.5675 18.375 13.2125 17.915 13.235 17.72C13.2575 17.5225 12.665 17.02 11.6275 17.02C10.3675 17.0175 10.14 17.455 10.1825 17.73Z" fill="#FE8D00"/>
<path d="M9.8225 19.59C9.79 20.1475 10.1825 20.3775 10.73 20.355C11.2775 20.3325 12.305 19.82 12.5125 19.2275C12.6425 18.86 12.03 18.21 11.1325 18.2425C10.615 18.2625 9.85 19.1025 9.8225 19.59Z" fill="#7F594B"/>
<path d="M19.4525 16.295C19.6725 16.415 20.4925 16.185 21.1375 16.055C21.7825 15.925 22.44 15.8575 22.5375 15.65C22.635 15.4425 22.46 14.5675 21.4975 14.49C20.535 14.4125 19.9875 14.775 19.7575 15.025C19.5275 15.2775 19.375 15.5825 19.3625 15.67C19.3525 15.76 19.3 16.2125 19.4525 16.295ZM23.37 17.9375C23.6825 17.8825 23.48 16.9425 23.2275 16.6575C22.975 16.3725 22.265 16.2425 21.815 16.2975C21.3675 16.3525 21.06 16.4725 21.0375 16.725C21.015 16.9775 21.815 17.4025 22.23 17.59C22.6475 17.7725 23.1825 17.97 23.37 17.9375Z" fill="#FE8D00"/>
<path d="M12.625 18.645C12.8825 18.735 13.4825 18.56 13.49 18.18C13.4975 17.8 13.155 17.445 12.8175 17.5225C12.6475 17.56 12.2925 18.0025 12.3 18.1725C12.3075 18.345 12.4925 18.6 12.625 18.645ZM13.885 16.365C13.9075 16.6675 14.58 16.9825 14.8125 16.7825C15.0325 16.5925 14.905 15.785 14.62 15.785C14.265 15.785 13.875 16.24 13.885 16.365ZM14.52 17.8175C14.525 17.925 14.6825 18.42 15.07 18.4125C15.4575 18.405 15.9825 18.01 15.9825 17.81C15.9825 17.61 15.3725 16.9675 15.085 16.975C14.89 16.98 14.5125 17.61 14.52 17.8175Z" fill="#92A51E"/>
<path d="M15.795 16.3875C15.75 16.655 15.95 16.6825 16.1275 16.7125C16.305 16.7425 16.53 16.7975 16.7625 17.1C16.995 17.4025 17.2225 18.03 17.25 18.0975C17.335 18.315 17.7225 18.43 18 18.16C18.2775 17.89 17.73 16.7 17.2425 16.32C16.7525 15.94 15.88 15.8925 15.795 16.3875Z" fill="#FBE0BC"/>
<path d="M15.67 17.0225C15.7075 17.27 16.2725 17.725 16.6675 17.525C17.0625 17.325 16.6375 16.5875 16.465 16.5075C16.3575 16.455 15.615 16.6625 15.67 17.0225ZM17.9675 16.4125C17.79 16.405 17.6425 16.4675 17.65 16.7675C17.6575 17.07 17.7725 17.41 18.1675 17.4325C18.5625 17.455 18.6 16.9375 18.6 16.875C18.6 16.8125 18.36 16.4275 17.9675 16.4125ZM18.0825 18.05C17.935 18.015 17.225 18.32 17.21 18.6075C17.195 18.8925 17.4575 19.11 17.905 19.165C18.3525 19.22 18.655 19.22 18.7175 19.0025C18.7775 18.785 18.5225 18.1575 18.0825 18.05Z" fill="#92A51E"/>
<path d="M21.305 20.6525C21.3325 20.82 21.9225 21.0825 22.1125 21.03C22.3 20.9775 22.7625 20.0125 23.455 19.815C24.1475 19.615 24.3775 19.7 24.4725 19.595C24.5675 19.49 24.43 19.0075 24.2 18.925C23.97 18.8425 23.35 18.725 22.575 19.1775C21.78 19.6375 21.2725 20.465 21.305 20.6525ZM13.9175 18.2725C13.5775 18.2925 13.12 18.7975 12.9225 19.2575C12.62 19.955 12.525 20.535 12.6075 20.6825C12.6925 20.83 13.295 21.035 13.54 20.87C13.6025 20.8275 13.665 20.0525 13.97 19.465C14.1775 19.0675 14.525 18.91 14.5875 18.8475C14.65 18.785 14.4725 18.2425 13.9175 18.2725ZM10.9925 14.7325C10.9 14.82 10.6475 15.225 10.73 15.9375C10.795 16.48 10.87 16.81 11.045 16.89C11.18 16.9525 12.145 17.0475 12.23 16.795C12.315 16.5425 11.7175 15.8425 11.6525 15.715C11.5875 15.5875 11.5575 14.855 11.5475 14.7625C11.5375 14.6675 11.14 14.595 10.9925 14.7325Z" fill="#FBE0AF"/>
<path d="M30.6675 14.6525C30.215 13.7475 29.725 13.4075 29.31 13.4075C28.895 13.4075 27.4625 14.0875 27.4625 14.0875C27.4625 14.0875 24.25 10.6375 16.1025 10.52C8.21753 10.405 4.86503 13.6675 4.86503 13.6675C4.86503 13.6675 3.73003 12.8025 2.63503 12.915C1.54253 13.03 0.600029 15.8975 1.09003 16.7275C1.58003 17.5575 2.29753 17.52 2.86253 17.8225C3.42753 18.125 3.95753 18.465 4.07003 18.6525C4.18253 18.84 4.52253 23.03 5.58003 24.915C6.63753 26.8025 8.63503 29.33 15.955 29.48C23.275 29.63 25.25 26.675 26.14 24.99C27.1975 22.99 27.6875 19.2925 27.6875 19.2925C27.6875 19.2925 28.4425 18.6125 29.2725 18.275C30.19 17.9 30.5925 17.8225 30.8575 17.445C31.12 17.065 31.12 15.5575 30.6675 14.6525ZM16.2175 21.7075C8.33253 21.63 4.52003 19.14 4.63503 16.3125C4.71003 14.465 8.40753 11.4075 15.6525 11.4825C22.975 11.56 27.5375 14.2 27.5 16.65C27.46 19.1025 23.9525 21.7825 16.2175 21.7075Z" fill="#6A6E70"/>
<path opacity="0.6" d="M15.9275 14.8125C16.725 14.7275 16.3625 13.385 17.0175 12.09C18.515 9.12248 21.4575 8.82248 21.375 6.28998C21.285 3.51998 16.99 2.17498 15.6825 3.23748C15.2625 3.57998 17.67 3.97248 17.29 5.55248C16.9075 7.13248 13.995 7.23998 13.2875 9.77248C12.445 12.7775 15.41 14.865 15.9275 14.8125Z" fill="#EAEAEA"/>
</svg>
