<svg width="33" height="33" viewBox="0 0 33 33" fill="none" xmlns="http://www.w3.org/2000/svg">
<path d="M12.4596 9.716L7.2649 4.52133C7.63291 4.08235 7.82331 3.52153 7.79864 2.94922C7.77396 2.37692 7.536 1.83457 7.13157 1.42889C6.69985 0.997358 6.11442 0.754944 5.50401 0.754944C4.8936 0.754944 4.30818 0.997358 3.87646 1.42889C3.61468 1.6906 3.42015 2.0118 3.30947 2.36503C3.1988 2.71826 3.17527 3.09303 3.2409 3.45733C2.8766 3.3917 2.50183 3.41523 2.1486 3.5259C1.79536 3.63658 1.47417 3.83111 1.21246 4.09289C0.780928 4.52461 0.538513 5.11003 0.538513 5.72044C0.538513 6.33085 0.780928 6.91628 1.21246 7.348C1.61814 7.75243 2.16049 7.99039 2.73279 8.01507C3.3051 8.03974 3.86592 7.84934 4.3049 7.48133L9.49957 12.676L12.4596 9.716ZM23.0533 20.3107L28.2489 25.5053C28.6879 25.1373 29.2487 24.9469 29.821 24.9716C30.3933 24.9963 30.9357 25.2342 31.3413 25.6387C31.6876 25.9846 31.9144 26.432 31.9888 26.9158C32.0632 27.3996 31.9813 27.8945 31.7551 28.3285C31.5288 28.7625 31.1699 29.113 30.7307 29.329C30.2915 29.5449 29.7948 29.6151 29.3129 29.5293C29.3985 30.0111 29.3281 30.5077 29.112 30.9467C28.8959 31.3858 28.5454 31.7445 28.1115 31.9706C27.6775 32.1968 27.1828 32.2786 26.6991 32.2042C26.2155 32.1298 25.7681 31.903 25.4222 31.5569C25.0179 31.1511 24.7801 30.6087 24.7556 30.0364C24.7311 29.4641 24.9217 28.9033 25.2898 28.4644L20.0942 23.2698L23.0533 20.3107Z" fill="#FFD983"/>
<path d="M26.6854 14.6147C25.2347 13.1631 23.0294 13.2431 21.144 11.3569C19.2587 9.47066 19.3378 7.26622 17.8862 5.81466C14.7618 2.69022 11.648 4.51066 7.83025 8.32933C4.01247 12.148 2.19202 15.2618 5.31558 18.3853C6.76713 19.8369 8.97247 19.7578 10.8578 21.6431C12.7431 23.5284 12.664 25.7347 14.1156 27.1844C17.24 30.3089 20.3538 28.4893 24.1725 24.6707C27.9911 20.852 29.8089 17.7391 26.6854 14.6147Z" fill="#C1694F"/>
<path d="M12.4444 20.9445C12.3035 20.9444 12.1647 20.9109 12.0393 20.8466C11.914 20.7823 11.8057 20.6892 11.7234 20.5749C11.6411 20.4605 11.5871 20.3283 11.566 20.189C11.5448 20.0497 11.5571 19.9074 11.6018 19.7738C12.5875 16.8156 16.3173 13.0867 19.2746 12.1009C19.3858 12.0622 19.5036 12.0459 19.6211 12.053C19.7386 12.0602 19.8535 12.0906 19.9591 12.1425C20.0648 12.1944 20.1591 12.2668 20.2365 12.3554C20.314 12.4441 20.3731 12.5473 20.4103 12.6589C20.4476 12.7706 20.4623 12.8885 20.4536 13.0059C20.4449 13.1233 20.413 13.2379 20.3597 13.3428C20.3064 13.4478 20.2327 13.5411 20.1431 13.6174C20.0534 13.6936 19.9495 13.7513 19.8373 13.7871C17.4498 14.5827 14.0835 17.9489 13.288 20.3365C13.1635 20.7089 12.8169 20.9445 12.4444 20.9445Z" fill="#662113"/>
</svg>
