<svg width="32" height="33" viewBox="0 0 32 33" fill="none" xmlns="http://www.w3.org/2000/svg">
<path d="M25.5111 18.5444L27.7333 18.1889L27.6 17.7444C27.7711 17.7009 27.9317 17.6232 28.0721 17.5161C28.2124 17.4089 28.3297 17.2745 28.4169 17.121C28.5041 16.9674 28.5593 16.7978 28.5793 16.6224C28.5993 16.4469 28.5837 16.2692 28.5333 16.1C28.4804 15.9054 28.3852 15.7249 28.2546 15.5713C28.124 15.4177 27.9612 15.2947 27.7778 15.2111C28.1185 14.8245 28.3167 14.333 28.3395 13.8182C28.3562 13.4032 28.2538 12.992 28.0444 12.6333C27.7908 12.2106 27.4062 11.8821 26.9491 11.6977C26.4919 11.5132 25.9871 11.4828 25.5111 11.6111C25.5683 11.3999 25.5718 11.1778 25.5215 10.9649C25.4712 10.752 25.3686 10.555 25.223 10.3917C25.0774 10.2285 24.8934 10.1041 24.6876 10.0299C24.4818 9.95564 24.2607 9.93391 24.0444 9.96664C24.1393 9.49554 24.0783 9.00635 23.8705 8.57304C23.6626 8.13973 23.3194 7.78586 22.8926 7.56494C22.4659 7.34403 21.9788 7.26807 21.505 7.34856C21.0312 7.42905 20.5965 7.66161 20.2667 8.01108C20.2082 7.78164 20.0916 7.57113 19.9281 7.39987C19.7647 7.2286 19.5598 7.10235 19.3333 7.0333C19.1356 6.99218 18.9317 6.99065 18.7333 7.02879C18.535 7.06693 18.3462 7.14399 18.1778 7.25553C18.0322 6.81628 17.7522 6.43397 17.3773 6.16276C17.0024 5.89155 16.5516 5.74519 16.0889 5.74441C15.5933 5.73745 15.1104 5.90165 14.7217 6.20932C14.3331 6.51699 14.0625 6.9493 13.9555 7.4333C13.7968 7.25753 13.5912 7.13071 13.3629 7.06773C13.1346 7.00475 12.8931 7.00822 12.6667 7.07775C12.4721 7.13071 12.2916 7.22587 12.138 7.35645C11.9844 7.48703 11.8614 7.64984 11.7778 7.8333C11.431 7.52297 10.995 7.3301 10.5321 7.28221C10.0692 7.23433 9.60298 7.33387 9.19999 7.56664C8.7773 7.8203 8.44883 8.20486 8.26437 8.66201C8.0799 9.11916 8.0495 9.62399 8.17777 10.1C7.9666 10.0428 7.74451 10.0392 7.5316 10.0895C7.31869 10.1398 7.12169 10.2424 6.95842 10.388C6.79516 10.5337 6.67078 10.7177 6.59656 10.9235C6.52233 11.1293 6.5006 11.3503 6.53333 11.5666C6.06223 11.4717 5.57304 11.5328 5.13973 11.7406C4.70642 11.9484 4.35255 12.2917 4.13163 12.7184C3.91072 13.1452 3.83476 13.6323 3.91525 14.1061C3.99574 14.5799 4.2283 15.0145 4.57777 15.3444C4.28918 15.4114 4.03125 15.5729 3.84497 15.8033C3.65869 16.0337 3.55474 16.3197 3.54964 16.616C3.54453 16.9122 3.63856 17.2016 3.81678 17.4383C3.99501 17.675 4.24721 17.8453 4.53333 17.9222V18.3666L5.9111 18.6777" fill="#B1CC33"/>
<path d="M25.5111 18.5444L27.7333 18.1889L27.6 17.7444C27.7711 17.7009 27.9317 17.6232 28.0721 17.5161C28.2124 17.4089 28.3297 17.2745 28.4169 17.121C28.5041 16.9674 28.5593 16.7978 28.5793 16.6224C28.5993 16.4469 28.5837 16.2692 28.5333 16.1C28.4804 15.9054 28.3852 15.7249 28.2546 15.5713C28.124 15.4177 27.9612 15.2947 27.7778 15.2111C28.1185 14.8245 28.3167 14.333 28.3395 13.8182C28.3562 13.4032 28.2538 12.992 28.0444 12.6333C27.7908 12.2106 27.4062 11.8821 26.9491 11.6977C26.4919 11.5132 25.9871 11.4828 25.5111 11.6111C25.5683 11.3999 25.5718 11.1778 25.5215 10.9649C25.4712 10.752 25.3686 10.555 25.223 10.3917C25.0774 10.2285 24.8934 10.1041 24.6876 10.0299C24.4818 9.95564 24.2607 9.93391 24.0444 9.96664C24.1393 9.49554 24.0783 9.00635 23.8705 8.57304C23.6626 8.13973 23.3194 7.78586 22.8926 7.56494C22.4659 7.34403 21.9788 7.26807 21.505 7.34856C21.0312 7.42905 20.5965 7.66161 20.2667 8.01108C20.2082 7.78164 20.0916 7.57113 19.9281 7.39987C19.7647 7.2286 19.5598 7.10235 19.3333 7.0333C19.1356 6.99218 18.9317 6.99065 18.7333 7.02879C18.535 7.06693 18.3462 7.14399 18.1778 7.25553C18.0322 6.81628 17.7522 6.43397 17.3773 6.16276C17.0024 5.89155 16.5516 5.74519 16.0889 5.74441C15.5933 5.73745 15.1104 5.90165 14.7217 6.20932C14.3331 6.51699 14.0625 6.9493 13.9555 7.4333C13.7968 7.25753 13.5912 7.13071 13.3629 7.06773C13.1346 7.00475 12.8931 7.00822 12.6667 7.07775C12.4721 7.13071 12.2916 7.22587 12.138 7.35645C11.9844 7.48703 11.8614 7.64984 11.7778 7.8333C11.431 7.52297 10.995 7.3301 10.5321 7.28221C10.0692 7.23433 9.60298 7.33387 9.19999 7.56664C8.7773 7.8203 8.44883 8.20486 8.26437 8.66201C8.0799 9.11916 8.0495 9.62399 8.17777 10.1C7.9666 10.0428 7.74451 10.0392 7.5316 10.0895C7.31869 10.1398 7.12169 10.2424 6.95842 10.388C6.79516 10.5337 6.67078 10.7177 6.59656 10.9235C6.52233 11.1293 6.5006 11.3503 6.53333 11.5666C6.06223 11.4717 5.57304 11.5328 5.13973 11.7406C4.70642 11.9484 4.35255 12.2917 4.13163 12.7184C3.91072 13.1452 3.83476 13.6323 3.91525 14.1061C3.99574 14.5799 4.2283 15.0145 4.57777 15.3444C4.28918 15.4114 4.03125 15.5729 3.84497 15.8033C3.65869 16.0337 3.55474 16.3197 3.54964 16.616C3.54453 16.9122 3.63856 17.2016 3.81678 17.4383C3.99501 17.675 4.24721 17.8453 4.53333 17.9222V18.3666L5.9111 18.6777" stroke="#B1CC33" stroke-width="0.888889" stroke-miterlimit="10"/>
<path d="M9.64311 18.4111C11.1159 18.4111 12.3098 17.2172 12.3098 15.7444C12.3098 14.2717 11.1159 13.0778 9.64311 13.0778C8.17035 13.0778 6.97644 14.2717 6.97644 15.7444C6.97644 17.2172 8.17035 18.4111 9.64311 18.4111Z" fill="#EA5A47"/>
<path d="M16.3097 17.9667C17.7825 17.9667 18.9764 16.7728 18.9764 15.3C18.9764 13.8273 17.7825 12.6334 16.3097 12.6334C14.837 12.6334 13.6431 13.8273 13.6431 15.3C13.6431 16.7728 14.837 17.9667 16.3097 17.9667Z" fill="#EA5A47"/>
<path d="M22.9765 17.9667C24.4492 17.9667 25.6431 16.7728 25.6431 15.3C25.6431 13.8273 24.4492 12.6334 22.9765 12.6334C21.5037 12.6334 20.3098 13.8273 20.3098 15.3C20.3098 16.7728 21.5037 17.9667 22.9765 17.9667Z" fill="#EA5A47"/>
<path d="M28.8889 16.0555C28.8889 19.4739 27.5309 22.7522 25.1138 25.1694C22.6967 27.5865 19.4183 28.9444 16 28.9444C12.5816 28.9444 9.30329 27.5865 6.88615 25.1694C4.46902 22.7522 3.11108 19.4739 3.11108 16.0555H28.8889Z" fill="white"/>
<path d="M21.7778 16.0555C21.7778 23.1667 20 28.9444 16 28.9444C19.4176 28.9421 22.6946 27.5834 25.1112 25.1668C27.5278 22.7501 28.8865 19.4732 28.8889 16.0555H21.7778Z" fill="#D0CFCE"/>
<path d="M22.3422 13.0343C22.7758 12.9098 23.2365 12.916 23.6666 13.052C24.1061 13.1962 24.4989 13.4554 24.8044 13.8027M14.7897 13.4907C15.1541 13.2058 15.5881 13.0237 16.0466 12.9632C16.4946 12.9089 16.9487 12.9881 17.352 13.1907M7.81506 14.2467C8.12053 13.8994 8.51338 13.6402 8.95284 13.496C9.38301 13.3601 9.84371 13.3541 10.2773 13.4787" stroke="#212121" stroke-width="0.888889" stroke-linecap="round" stroke-linejoin="round"/>
<path d="M28.2889 14.2494C28.4084 13.7134 28.3211 13.1521 28.0444 12.6778C27.7907 12.2551 27.4062 11.9266 26.949 11.7422C26.4919 11.5577 25.9871 11.5273 25.5111 11.6556C25.5682 11.4444 25.5718 11.2223 25.5215 11.0094C25.4712 10.7965 25.3686 10.5995 25.223 10.4362C25.0774 10.273 24.8934 10.1486 24.6876 10.0744C24.4818 10.0001 24.2607 9.97841 24.0444 10.0111C24.1393 9.54003 24.0782 9.05084 23.8704 8.61753C23.6626 8.18422 23.3194 7.83036 22.8926 7.60944C22.4658 7.38852 21.9787 7.31257 21.505 7.39306C21.0312 7.47355 20.5965 7.70611 20.2666 8.05558C20.2082 7.82614 20.0916 7.61563 19.9281 7.44436C19.7646 7.27309 19.5598 7.14685 19.3333 7.0778C19.1356 7.03668 18.9316 7.03514 18.7333 7.07328C18.535 7.11143 18.3461 7.18849 18.1778 7.30002C18.0322 6.86078 17.7522 6.47847 17.3772 6.20726C17.0023 5.93604 16.5516 5.78968 16.0889 5.78891C15.5932 5.78194 15.1104 5.94614 14.7217 6.25381C14.3331 6.56148 14.0625 6.99379 13.9555 7.4778C13.7968 7.30203 13.5912 7.1752 13.3629 7.11222C13.1346 7.04924 12.893 7.05272 12.6666 7.12224C12.4721 7.17521 12.2916 7.27036 12.138 7.40094C11.9844 7.53153 11.8614 7.69433 11.7778 7.8778C11.4309 7.56747 10.995 7.3746 10.5321 7.32671C10.0692 7.27882 9.60296 7.37836 9.19997 7.61113C8.77728 7.8648 8.44881 8.24935 8.26435 8.7065C8.07988 9.16365 8.04948 9.66848 8.17775 10.1445C7.96658 10.0873 7.74449 10.0837 7.53158 10.134C7.31867 10.1843 7.12167 10.2869 6.9584 10.4325C6.79514 10.5782 6.67076 10.7622 6.59654 10.968C6.52231 11.1738 6.50058 11.3948 6.53331 11.6111C6.07858 11.5236 5.60791 11.5792 5.18607 11.7703C4.76424 11.9613 4.41197 12.2783 4.17775 12.6778C3.94859 13.0641 3.84835 13.5134 3.89153 13.9605M28.8889 16.0556C28.8889 19.4739 27.5309 22.7523 25.1138 25.1694C22.6967 27.5865 19.4183 28.9445 16 28.9445C12.5816 28.9445 9.30329 27.5865 6.88615 25.1694C4.46902 22.7523 3.11108 19.4739 3.11108 16.0556H28.8889Z" stroke="#212121" stroke-width="0.888889" stroke-linecap="round" stroke-linejoin="round"/>
</svg>
