<svg width="32" height="32" viewBox="0 0 32 32" fill="none" xmlns="http://www.w3.org/2000/svg">
<path d="M18.732 7.38666C19.0019 7.32463 19.2844 7.34818 19.5403 7.45402C19.7962 7.55987 20.0128 7.74277 20.16 7.97733L21.4854 10.0933C21.5922 10.2638 21.7363 10.4078 21.9067 10.5147L24.0227 11.84C24.2578 11.9871 24.4411 12.2038 24.5472 12.46C24.6533 12.7162 24.6769 12.9991 24.6147 13.2693L24.0547 15.7013C24.0095 15.8979 24.0095 16.1021 24.0547 16.2987L24.6147 18.732C24.6763 19.0018 24.6524 19.2841 24.5463 19.5398C24.4403 19.7954 24.2573 20.0117 24.0227 20.1587L21.9067 21.4853C21.7363 21.5922 21.5922 21.7362 21.4854 21.9067L20.16 24.0227C20.013 24.2575 19.7965 24.4406 19.5406 24.5467C19.2847 24.6528 19.0021 24.6766 18.732 24.6147L16.2987 24.0547C16.1026 24.0097 15.8988 24.0097 15.7027 24.0547L13.2694 24.6147C12.9993 24.6766 12.7167 24.6528 12.4608 24.5467C12.2049 24.4406 11.9884 24.2575 11.8414 24.0227L10.516 21.9067C10.4088 21.7361 10.2643 21.592 10.0934 21.4853L7.97871 20.16C7.74391 20.013 7.56074 19.7965 7.45464 19.5405C7.34855 19.2846 7.32481 19.002 7.38671 18.732L7.94538 16.2987C7.99055 16.1021 7.99055 15.8979 7.94538 15.7013L7.38538 13.2693C7.3233 12.999 7.3471 12.716 7.45345 12.4598C7.5598 12.2036 7.74341 11.9869 7.97871 11.84L10.0934 10.5147C10.2643 10.408 10.4088 10.2639 10.516 10.0933L11.8414 7.97733C11.9885 7.74303 12.2049 7.56029 12.4605 7.45446C12.7161 7.34863 12.9983 7.32493 13.268 7.38666L15.7027 7.94533C15.8988 7.9903 16.1026 7.9903 16.2987 7.94533L18.732 7.38666Z" stroke="#FFF176" stroke-width="1.33333"/>
<path d="M12.6868 16.7147L15.4001 19.3133L19.3134 12.6867" stroke="#FFF176" stroke-width="1.33333" stroke-linecap="round" stroke-linejoin="round"/>
</svg>
